<?xml version="1.0" encoding="utf-8"?>
<!-- Generator: Adobe Illustrator 25.4.1, SVG Export Plug-In . SVG Version: 6.00 Build 0)  -->
<svg version="1.1" id="Capa_1" xmlns="http://www.w3.org/2000/svg" xmlns:xlink="http://www.w3.org/1999/xlink" x="0px" y="0px"
	 viewBox="0 0 1000 1000" style="enable-background:new 0 0 1000 1000;" xml:space="preserve">
<style type="text/css">
	.st0{fill:#FFFFFF;}
</style>
<g id="Capa_2_00000062895518324209678640000017272894912771903370_">
	<g id="Capa_1-2">
		<path class="st0" d="M629.6,487.8v78.7c0,15.4-12.5,27.8-27.8,27.8c-15.4,0-27.8-12.5-27.8-27.8v-78.7c0-15.4,12.5-27.8,27.8-27.8
			C617.2,459.9,629.6,472.4,629.6,487.8z"/>
		<path class="st0" d="M499.8,264.5c-108.5,0.1-196.4,88.1-196.5,196.6v215.4C303,705,323,729.8,351,735.4
			c16.9,3,34.2-1.7,47.3-12.8c12.9-11,20.2-27.2,20.2-44.1c-0.6-6.4,4.1-12,10.5-12.6s12,4.1,12.6,10.5c0.1,0.7,0.1,1.4,0,2.2
			c0,31.9,25.9,57.8,57.8,57.8s57.8-25.9,57.8-57.8c-0.6-6.4,4.1-12,10.5-12.6s12,4.1,12.6,10.5c0.1,0.7,0.1,1.4,0,2.2
			c-0.1,17,7.3,33.1,20.2,44.1c13,11.1,30.3,15.8,47.2,12.8c28-5.6,48.1-30.4,47.8-58.9V461.1C695.3,352.9,608,265.1,499.8,264.5z
			 M448.8,566.8c0,28.1-22.7,50.9-50.9,50.9c-28.1,0-50.9-22.7-50.9-50.9c0,0,0,0,0-0.1v-79c0-28.1,22.7-50.9,50.9-50.9
			c28.1,0,50.9,22.7,50.9,50.9c0,0,0,0,0,0.1V566.8z M652.7,566.8c-1.3,28.1-25.1,49.9-53.2,48.7c-26.4-1.2-47.5-22.3-48.7-48.7v-79
			c-1.3-28.1,20.5-51.9,48.7-53.2c28.1-1.3,51.9,20.5,53.2,48.7c0.1,1.5,0.1,3,0,4.5V566.8z M397.9,459.9
			c-15.3,0.1-27.8,12.5-27.8,27.8v78.7c0,15.4,12.5,27.8,27.8,27.8c15.4,0,27.8-12.5,27.8-27.8v-78.7
			C425.6,472.4,413.2,460,397.9,459.9z"/>
		<path class="st0" d="M499.8,136.2c-201.1,0-364.1,163-364.1,364.1s163,364.1,364.1,364.1S864,701.5,864,500.4l0,0
			C864,299.2,700.9,136.2,499.8,136.2z M719.5,676.5c0.6,39.9-27.7,74.5-67,81.7c-23.6,4.1-47.7-2.5-66-17.9
			c-6.8-5.7-12.7-12.5-17.3-20.2c-22.7,38.3-72.2,50.9-110.5,28.2c-11.6-6.9-21.3-16.6-28.2-28.2c-4.6,7.6-10.5,14.4-17.3,20.2
			c-18.2,15.5-42.4,22-66,17.9c-39.3-7.2-67.6-41.8-67-81.7V461.1c0-121.3,98.3-219.6,219.6-219.6s219.6,98.3,219.6,219.6
			L719.5,676.5L719.5,676.5z"/>
		<path class="st0" d="M994,501.2l-52.1-0.7l-46.1-0.6c0-2.8,0-5.7,0-8.6c0-4.8,0-10.1-0.6-14.7c0-2.6,0-5.2,0-7.9
			c0-5-0.8-10.1-1.6-15.4l0,0l-1.5-11.6c0-2.5-0.8-4.9-1.2-7.5c-0.4-2.5,0-2.8-0.8-4.1c-0.9-5.9-2.2-11.8-3.5-17.5l45-10.9
			l44.9-10.9c4.8,21.4,8.2,43.2,10.1,65.1l-57.5,4.5c0-3.8-0.7-7.6-1.3-11.4c0-1.9,0-3.9-0.7-5.8s0-3.5-0.7-5.2l28.2-4.1
			c3.1-0.5,5.3-3.5,4.8-6.6s-3.5-5.3-6.6-4.8l-34.3,5.4c-1.5,0.2-2.9,1.1-3.8,2.3c-0.8,1.3-1.2,2.8-0.9,4.3c0.6,3.4,1,7,1.4,10.1
			s0.5,4.1,0.8,6.2c0.7,5.2,1.1,10.1,1.5,16.3c0.3,3,2.8,5.4,5.8,5.3l0,0l69.1-5.4c1.5-0.1,3-0.8,3.9-2c1-1.2,1.5-2.7,1.4-4.2
			c-2-26.4-6.1-52.6-12.4-78.3c-0.8-3.1-3.9-4.9-7-4.2L928,390.5l-45,10.9c-3.9-15-8.7-29.8-14.3-44.2l0,0l-4.4-11.1l-4.7-10.1
			c-2.1-5.1-4.6-10.1-7.1-14.8l-0.8-1.4l40.9-21.8l40.3-21.8c10.1,19.5,18.9,39.7,26.2,60.5l-54.6,18.7l-4-10.7l-2.1-5.3
			c-0.6-1.6-1.3-3.3-1.9-5l27.1-11.4c2.8-1.5,3.9-5.1,2.3-7.9c-1.4-2.5-4.3-3.7-7-2.8l-31.7,13.9c-1.4,0.6-2.6,1.8-3.1,3.2
			c-0.6,1.4-0.6,3.1,0,4.5c1.5,3.1,2.7,6.3,4,10.1c1.3,3.7,1.4,3.8,2.2,5.5l2.9,7.6l2.7,8.1c0.5,1.4,1.6,2.6,2.9,3.3
			c0.8,0.4,1.7,0.6,2.6,0.6c0.6,0.1,1.2,0.1,1.8,0l65.6-22.5c1.5-0.4,2.7-1.5,3.3-2.9s0.6-3,0-4.4c-8.5-25.1-19.1-49.4-31.6-72.7
			c-1.5-2.8-4.9-3.9-7.8-2.4l0,0l-45.9,24.5l-40.3,21.9c-1.2-2.1-2.5-4.2-3.7-6.4c-2.5-4.4-5.1-9.1-8.1-13.4l-6.4-10.1l-6.6-9.5l0,0
			c-8-11.6-16.5-22.8-25.7-33.6l34.2-31.3l34.1-31.1c14.5,16.5,28,33.8,40.3,52l-48.1,31.7l-3.3-4.7c-1.1-1.4-2.1-2.9-3.2-4.4
			l-5-7.1l-1.6-2.1l22.8-17.7c2.5-1.9,3-5.6,1.1-8.1s-5.6-3-8.1-1.1l0,0L831.5,235c-1.2,0.9-2,2.3-2.2,3.8c-0.1,1.5,0.3,3.1,1.2,4.3
			l5,6.3l4.8,6.9l3.3,4.6c2.2,3,4.2,5.8,6.1,9c0.8,1.3,2.1,2.2,3.6,2.6h1.3c1.1,0,2.2-0.3,3.1-0.9l57.9-38.2
			c1.3-0.9,2.2-2.2,2.5-3.7s0-3.1-0.9-4.3c-14.6-22-30.9-42.9-48.7-62.5c-1-1.1-2.4-1.8-3.9-1.9c-1.6-0.1-3.1,0.5-4.2,1.5
			l-38.5,35.3L788,229l-7.9-8.3l-8.4-7.9c-4-4.1-8.5-8-12.7-11.6l-4.8-4.2l-3.8,4.3l3.7-4.3c-4.6-3.9-9.5-7.7-14.1-11.3l-4.5-3.8
			c-2.4-1.6-4.6-3.3-7-4.9l-7.4-5.1l25.3-38.7l25.3-38.4c18.2,12.3,35.6,25.7,52.1,40.3L785,177.9c-5.6-4.8-11.4-10.1-17.3-14.5
			l18.2-23c1.9-2.5,1.5-6.2-1.1-8.1c-2.5-1.9-6.2-1.5-8.1,1.1l0,0L755,160.8c-0.9,1.2-1.3,2.8-1.1,4.3s1,2.9,2.2,3.8
			c8.1,6,15.8,12.8,23.4,19.3l2.2,2c1.1,1.1,2.6,1.7,4.2,1.7c1.6,0,3.1-0.7,4.2-1.9l46.1-51.7c1.1-1.1,1.6-2.6,1.5-4.1s-0.7-3-1.9-4
			c-19.6-17.7-40.6-33.9-62.7-48.4c-1.3-0.8-2.8-1-4.2-0.7c-1.5,0.3-2.8,1.2-3.7,2.4L736.8,127l-25.4,38.7
			c-13-8.3-26.5-15.8-40.3-22.7l-2.5,5.2l2.4-5.3c-12.1-5.4-24.9-11.1-38.1-15.7l14.8-43.8l14.9-43.7c20.7,7.3,40.9,16,60.5,26.1
			L696,117l-10.1-5.1l-10.1-4.6l11.5-26.6c1.3-2.9-0.1-6.3-3-7.6c-2.9-1.3-6.3,0.1-7.6,3l0,0L663,107.9c-1.2,2.9,0.1,6.2,2.9,7.6
			l15.1,6.8l15,7.7c0.8,0.5,1.7,0.7,2.6,0.7c2.2,0,4.1-1.2,5.1-3.1l31.7-61.3c1.5-2.8,0.5-6.3-2.2-7.8h-0.1
			c-23.3-12.5-47.7-23-72.8-31.5c-1.4-0.6-3-0.6-4.4,0s-2.5,1.8-2.9,3.3l-16.4,49.6l-14.9,43.7c-4.5-1.5-9.2-2.8-13.6-4l-8.6-2.5
			l-6.6-1.5c-5.3-1.3-10.8-2.5-16.2-3.6l-1.1,5.7l0.9-5.7l-7.6-1.3c-5.1-1.1-10.3-1.9-15.5-2.4l-11.6-1.5h-6l3.5-46.1l3.4-46.1
			c21.9,1.8,43.7,5.2,65.1,10.1l-13.3,55.8l0,0c-3.6-0.8-7.2-1.7-10.8-2.3l-11.1-1.9l4.5-28.7c0.2-3.2-2.3-6-5.5-6.2
			c-2.8-0.2-5.3,1.7-6,4.3l-5.3,34.4c-0.4,3.1,1.7,6,4.7,6.5l16.6,2.9c3.4,0.6,6.8,1.4,10.1,2.2l6,1.4h1.2c2.6-0.1,4.9-1.9,5.5-4.4
			l15.8-67.8c0.8-3.1-1.1-6.2-4.2-6.9l0,0c-25.8-6.1-52-10-78.4-11.8c-3.1-0.2-5.9,2.1-6.1,5.2l-3.9,51.9l-3.7,46.1
			c-4.8,0-10.1-0.5-14.2-0.6h-9c-7.9,0-15.6,0-23.5,0.6v5.8v-5.8c-12.3,0.9-26.5,2.1-41,4.5l-8.1-45.5l-8-45.5
			c21.7-3.6,43.6-5.7,65.6-6.2l0.9,57.8l0,0c-3.7,0-7.4,0-11.1,0l-11.3,0.8l-2.7-28.9c-0.6-3.2-3.7-5.3-6.8-4.7
			c-2.8,0.5-4.8,2.9-4.8,5.8l3.3,34.8c0.3,3,2.8,5.3,5.7,5.2l0,0l16.7-1.3h10.1h6.1c3.1-0.1,5.6-2.7,5.6-5.8l-0.3-69.9
			c-0.1-3.1-2.6-5.6-5.7-5.6l0,0c-26.4,0.3-52.6,2.9-78.6,7.6c-1.5,0.2-2.9,1.1-3.8,2.3c-0.8,1.3-1.2,2.8-0.9,4.3l9,51.3l8.1,45.5
			c-4.8,0.7-9.5,1.8-14,2.9l-8.6,2c-9.1,2.4-16,4.3-22.5,6.3l1.7,5.5l-1.9-5.4c-12.4,4.1-25.6,8.8-38.5,14.5l-19.2-42.1l0,0
			l-19.1-42c20-9,40.7-16.5,61.8-22.6l15.3,55.8l0,0c-3.6,1-7.2,2-10.7,3.2l-10.1,3.5l-10.1-27.2c-1.1-3-4.4-4.6-7.4-3.5
			s-4.6,4.4-3.5,7.4l0,0l11.8,32.5c0.8,2.3,3,3.9,5.4,3.8h1.8l15.1-5.1c3.3-1.1,6.8-2.1,10.1-3l5.9-1.7c3-0.9,4.8-4,3.9-7.1
			l-18-67.3c-0.9-3-4.1-4.8-7.2-4C342,25.1,317,34.2,293,45.2c-2.9,1.3-4.2,4.7-2.9,7.7l21.6,47.4l0,0l19.1,42.1
			c-5,2.3-10.1,4.9-14.8,7.4l-5.9,3.1c-2.4,1.5-4.8,2.8-7.4,4.2c-4.2,2.4-8.6,4.8-12.7,7.7l0,0c-7.2,4.4-13.5,8.6-19.4,13
			s-10.1,7.1-14.4,10.7l-29-36l-29-36.1c17.3-13.6,35.4-26,54.4-37.1l28.7,50.4c-6.5,3.8-12.9,8-19.1,12.1l-16.3-24.3
			c-2.1-2.4-5.8-2.6-8.2-0.5c-2,1.8-2.5,4.7-1.3,7.1l19.5,28.6c1.8,2.6,5.3,3.3,8,1.6l1.1-0.8c8.8-5.7,17.8-11.8,27.4-16.8
			c1.4-0.7,2.4-2,2.8-3.5s0.2-3.1-0.6-4.4l-34.5-60.5c-0.8-1.4-2-2.3-3.5-2.7c-1.5-0.4-3-0.2-4.3,0.6
			c-23.1,13.3-45.1,28.4-65.8,45.3c-2.5,2-2.8,5.7-0.8,8.2l32.6,40.3l29,36c-11.9,9.9-23.3,20.6-34,31.8l0,0
			c-9.5,9.9-18.5,20.4-26.9,31.3l-37.2-27.8l-37-27.7c13.5-17.4,28-33.9,43.6-49.4l40.3,41.4l-6.1,6.3l-1.7,1.8
			c-2.7,2.8-5.3,5.5-7.8,8.3l-21.7-19c-2.4-2.1-6-1.9-8.2,0.5s-1.9,6,0.5,8.2l26.1,22.9c2.4,2.1,6.1,1.9,8.2-0.6l0,0
			c3.3-4,7-7.9,11.1-12.2l1.8-1.8c3.2-3.5,6.5-6.9,10.1-10.1c1.1-1.1,1.8-2.6,1.9-4.1c0-1.5-0.6-3-1.7-4.1l-48.8-49.9
			c-1-1.1-2.5-1.8-4-1.8s-3,0.6-4.1,1.7c-19,18.4-36.5,38.2-52.4,59.3c-1.9,2.6-1.4,6.2,1.1,8.2l41.7,31.1l37.7,28.2h-0.6
			c-4.4,6.1-9,12.5-12.9,18.8s-7.6,12.3-11.1,18.3l-1,1.9l0,0c-2.6,4.3-4.8,8.8-7.1,13.1c-1.2,2.5-2.5,5.1-4,8.1
			c-1.5,2.9-2.1,4.6-3.2,7.1c-1.1,2.4-2.7,5.8-4,9L93.1,327l-42.7-17.6c8.8-20.2,18.9-39.8,30.2-58.7l49.3,30.2
			c-3.7,6.3-7.6,13-11.1,19.6l-25.7-13.1c-2.9-1.5-6.4-0.3-7.8,2.6l0,0c-1.4,2.8-0.3,6.3,2.5,7.7h0.1l30.5,15.3
			c2.9,1.5,6.4,0.3,7.8-2.6l0,0c4.5-9.3,10.1-18.3,15-27.1l1.1-2c1.6-2.7,0.8-6.2-1.9-7.9l-59.1-35.8c-1.3-0.8-2.9-1.1-4.3-0.7
			c-1.5,0.3-2.8,1.3-3.6,2.6C59.6,262,47.6,285.6,37.5,310c-0.6,1.4-0.6,3,0,4.4s1.7,2.5,3.1,3.1l48.1,20.2l42.9,17.6
			c-5.7,14.4-10.6,29.2-14.6,44.1l5.6,1.5l-5.6-1.4c-1.7,6.8-3.4,14-5.3,23.1c0,2.8-0.9,5.6-1.5,8.4c-0.6,2.7-1.1,5.9-1.5,9
			L63,433.9l-46-6.4c3.3-21.9,8.1-43.5,14.2-64.8l55.3,16.9l-3,10.8c-1,3.6-1.8,7.2-2.6,10.8l0,0L52.6,395c-3.1-0.7-6.2,1.2-6.9,4.3
			c-0.7,3.1,1.3,6.3,4.4,7l33.8,7.5c2.9,0.7,5.9-1.1,6.8-3.9c0.5-2,0.9-4,1.4-6s1.5-6.9,2.4-10.1l4.6-16.2c0.8-3-0.9-6.2-3.9-7.1
			l-66.3-20.2c-3-0.9-6.2,0.8-7.2,3.8C14,379.4,8.3,405.3,4.6,431.5c-0.4,3.2,1.8,6.1,4.9,6.5l51.6,7.2l45.8,6.3
			c-1.9,15.4-2.9,30.9-3.1,46.4l0,0c0,5.3,0,10.7,0,16c0,2.4,0,4.9,0,7.9s0.5,5.7,0.7,8.7s0,5.8,0.7,8.9l-44.8,5.2l-45.9,5
			c-2.1-21.8-2.9-43.8-2.2-65.7l57.8,2.6v11.2c0,3.7,0,7.5,0,11.2l0,0l-29.8,0.8c-3.2,0.1-5.7,2.7-5.6,5.8v0.1
			c0.1,3.1,2.6,5.6,5.7,5.5c0.1,0,0.1,0,0.2,0l34.7-1.1c3.2,0.1,5.9-2.5,5.9-5.7l0,0c0-2,0-4.1,0-6.1c0-3.5,0-7,0-10.1v-16.9
			c0.1-3.1-2.3-5.7-5.4-5.8h-0.1l-69.1-3.7c-3.2-0.1-5.8,2.4-6,5.5c-1.2,26.4-0.3,52.8,2.6,79.1c0.1,1.5,0.9,3,2.1,3.9
			c1,0.8,2.3,1.2,3.6,1.2h0.6l51.7-5.7l46-5.1v3.8c0,2.4,0.6,4.8,1,7.5l2,11.2c0.8,5.4,2.1,10.7,3.3,15.8c0,2.4,1.1,4.8,1.6,7.3
			l5.7-1.1l-5.6,1.3c1.4,5.5,3,11.1,4.5,16.5l1.9,6.4c1,2.7,1.8,5.3,2.7,8.1s1.9,5.6,2.9,8.6l-42.8,16.3l-43.1,16.4
			c-7.6-20.8-13.8-42-18.5-63.6l56.6-11.7l2.5,10.8c0.8,3.6,1.8,7.3,2.9,10.8l0,0L57,623.2c-3,0.8-4.8,3.9-4,6.9
			c0,0.1,0,0.2,0.1,0.3c0.3,3.2,3.2,5.5,6.4,5.2c0.3,0,0.6-0.1,0.8-0.1l33.2-10.1c3.1-0.8,4.9-4,4-7.1l0,0c-0.6-1.9-1.1-3.9-1.7-5.9
			s-1.9-6.6-2.7-10.1l-3.8-16.4c-0.7-3-3.7-5-6.8-4.3l-67.9,13.6c-3.2,0.6-5.4,3.7-4.8,6.9v0.1c5.5,25.9,13,51.4,22.4,76.2
			c0.6,1.4,1.6,2.6,3,3.2c0.8,0.2,1.6,0.2,2.3,0c0.7,0.1,1.4,0.1,2.1,0l48.8-18.4l43.3-16.4c5.5,14.4,11.9,28.5,19.1,42.1l5.1-2.7
			l-5,2.8c6.4,11.5,13.5,23.6,21.6,35.2l-37.7,26.7l-37.4,26.7c-12.5-18.1-23.8-37-33.8-56.6l52-25l4.9,10.1l5.5,10.1l-24.7,14
			c-2.8,1.6-3.7,5.2-2.1,8s5.2,3.7,8,2.1l0,0l30.2-17.7c2.7-1.6,3.6-5.1,2-7.9l-9-14.5l-7.7-15c-1.4-2.8-4.8-3.9-7.6-2.6
			c0,0-0.1,0-0.1,0.1l-62.3,30.2c-2.8,1.4-4,4.8-2.6,7.7c11.6,23.8,25,46.5,40.3,68.1c0.9,1.3,2.3,2.1,3.8,2.4h0.9
			c1.2,0,2.4-0.4,3.3-1.1l42.5-30.2l37.8-26.7c2.7,3.9,5.6,7.7,8.6,11.3l5.5,7.1l5,5.8c3.3,3.9,6.9,8,10.1,11.8l4.1-3.9l-4.1,3.9
			l3.5,3.7c4.1,4.3,8.5,8.9,13,13l3.1,3l5.5,5.1l4.4,3.8L207.2,833l-29.4,35c-16.6-14.4-32.2-30-46.7-46.5l43.9-37.6
			c4.9,5.7,10.1,11.3,15.3,16.6l-20.2,20.2c-2.3,2.3-2.3,5.9,0,8.2s5.9,2.3,8.2,0l0,0l24.5-24.6c2.2-2.2,2.2-5.8,0-8.1l-1.6-1.7
			c-7.1-7.4-14.4-14.9-21-22.8c-1-1.2-2.4-1.9-3.9-2.1c-1.5-0.1-3.1,0.4-4.2,1.4l-51.3,46.2c-2.4,2-2.7,5.6-0.7,8.1
			c17.2,20.2,36,38.9,56.2,56c1,0.9,2.4,1.4,3.7,1.3c1.7,0,3.2-0.7,4.3-2l33.8-39.6l30.2-35.3c12,9.9,24.5,19,37.6,27.4l0,0
			c11.6,7.6,23.5,14.5,35.9,20.7l-20.2,41.6l-20,41.6c-19.6-9.9-38.5-21.2-56.6-33.7l33.1-47.2c2.9,1.9,6,4,9.5,6.1l4,2.5l5.4,3.5
			l-15,25.1c-1.6,2.8-0.7,6.3,2,8c2.8,1.6,6.3,0.7,8-2.1l17.6-30.2c0.8-1.3,1-2.9,0.5-4.4c-0.4-1.5-1.4-2.8-2.7-3.6
			c-3.4-1.8-6.5-3.8-10.1-6l-4.1-2.6c-5.1-3.2-9.6-6.2-13.6-9.2c-1.2-0.9-2.8-1.3-4.3-1c-1.5,0.2-2.9,1.1-3.8,2.3l-40.3,56.8
			c-0.9,1.2-1.2,2.8-0.9,4.2c0.3,1.5,1.1,2.9,2.4,3.8c21.6,15.2,44.4,28.7,68.2,40.3c0.8,0.4,1.6,0.6,2.5,0.6c2.2,0,4.2-1.3,5.1-3.2
			l22.9-46.8l20.2-41.7l5.6,2.6c5,2.3,10.1,4.6,15.5,6.5l11.1,4.3l11,3.7l0,0c13.2,4.4,26.7,8.1,40.3,11l-9.3,45.4l-9.4,45.8
			c-21.5-4.7-42.7-10.8-63.4-18.3l20.2-54l5,1.7l5.6,1.9l8.3,2.7l2.5,0.7l-8,27.8c-0.9,3.1,0.9,6.3,3.9,7.2c3.1,0.9,6.3-0.9,7.2-3.9
			l0,0l10.1-33.4c0.5-1.5,0.3-3.1-0.5-4.4c-0.7-1.3-2-2.3-3.4-2.7L376,901l-7.9-2.7l-5.8-1.9c-3.4-1.1-6.6-2.2-10.1-3.5
			c-1.4-0.6-3.1-0.6-4.5,0s-2.6,1.8-3.1,3.3l-24.5,64.7c-0.6,1.4-0.6,3,0,4.4s1.8,2.5,3.2,3c24.8,9.2,50.3,16.6,76.2,22.1h1.2
			c1.1,0,2.2-0.4,3.1-1c1.3-0.8,2.2-2.1,2.5-3.6l10.1-51l9.3-45.4h1.2c7.1,1.3,14.3,2.6,21.6,3.3l4.2,0.6l7.6,0.8l11.5,0.9l0,0
			c14.7,1.1,29.4,1.1,41.5,0.8l2.2,46.2l2.8,46c-22,0.7-43.9,0-65.8-2l6.1-57.4h5.2h5.9c3.5,0,7.2,0.6,11.4,0.7l-0.8,28.9
			c-0.1,3.2,2.5,5.8,5.6,5.9c3.1,0.2,5.8-2.2,5.9-5.3c0-0.1,0-0.2,0-0.3l1-34.7c0.1-3.2-2.5-5.9-5.7-5.9l0,0c-6.5,0-11.6,0-16.4-0.8
			h-6.1c-3.4,0-7-0.5-10.1-1c-1.5-0.2-3.1,0.3-4.3,1.2c-1.2,1-2,2.4-2.1,3.9l-7.6,68.9c-0.1,1.6,0.3,3.1,1.3,4.3s2.4,2,3.9,2.1
			c18.5,1.9,37.2,2.8,55.8,2.8c7.8,0,15.5,0,23.2,0c1.5,0,3-0.7,4-1.8c1-1.2,1.6-2.7,1.5-4.2l-2.5-52l-2.3-46.2h5.8
			c5.6,0,11.5-0.8,17.1-1.7l11.9-1.4l11.4-2.1l0,0c13.6-2.4,27.1-5.6,40.3-9.5l13.7,44.2l13.7,44.1c-21.4,6.2-43.2,10.9-65.2,14.2
			l-8.1-57.1l5.4-1l5.6-1l8.6-1.5l2.5-0.6l6.3,28.2c0.6,3.2,3.7,5.3,7,4.7s5.3-3.7,4.7-7l-7.6-33.8c-0.4-1.5-1.3-2.8-2.6-3.6
			c-1.3-0.9-2.8-1.1-4.3-0.8l-8,1.8l-8.3,1.5l-5.7,1c-3.6,0.7-7.1,1.3-10.1,1.7c-1.6,0.1-3,0.9-3.9,2.1c-1,1.3-1.4,2.9-1.2,4.4
			l10.1,68.6c0.2,1.5,1,2.9,2.2,3.8c1,0.8,2.2,1.2,3.4,1.2h0.9c26-4,51.6-10,76.7-17.8c1.5-0.5,2.7-1.6,3.4-2.9
			c0.6-1.4,0.6-2.9,0-4.3l-15-49.5l-13.3-43.8l2.9-1c6.1-2.1,12.6-4.2,18.7-6.9l3.8-1.5l7.2-2.8l10.1-4.7l0,0
			c4.6-1.9,9.1-4.3,13.4-6.5l7.8-4l1.3-0.7c4.6-2.6,9.4-5.2,14.1-8.1l24.3,39.4l24.3,39.4c-18.9,11.3-38.5,21.4-58.6,30.2
			l-22.3-53.4c6.9-3,13.8-6,20.2-9.5l13.2,25.7c1.9,2.6,5.5,3.1,8,1.3c2-1.5,2.9-4.1,2.1-6.5l-15.8-30.9c-1.5-2.8-5-3.9-7.9-2.4
			c-9.2,4.9-18.9,9.2-28.4,13.3l-1.7,0.7c-2.9,1.3-4.2,4.6-3,7.6l26.6,64.1c0.6,1.4,1.7,2.5,3.1,3.1c0.7,0.1,1.5,0.1,2.2,0
			c0.7,0.1,1.5,0.1,2.2,0c24.4-10.2,48-22.3,70.5-36.1c1.3-0.8,2.2-2.1,2.6-3.6c0.4-1.5,0.1-3.1-0.7-4.4l-27.3-44.2l-23.3-40.2
			l10.1-6.1l9.4-6.6c4.3-2.9,8.4-6.2,12.4-9.4c2-1.7,4.1-3.3,6.2-4.9l-3.4-4.6l3.7,4.4c12.1-10.1,21.9-19,30.2-27.8l33.2,32.1
			l33.2,32c-15.5,15.7-32,30.4-49.5,43.8l-34.8-46.3l8.9-7c2.8-2.2,5.5-4.6,8.3-7.1l0,0l19.2,21.7c2.1,2.4,5.7,2.6,8.1,0.6
			c0,0,0,0,0.1-0.1c2.2-2.3,2.2-5.9,0-8.2l-21.9-26.2c-2.1-2.4-5.7-2.7-8.2-0.6l-4.7,4.1l-7.9,6.7l-13.1,9.9c-2.5,1.9-3,5.4-1.2,7.9
			c0,0,0,0,0,0.1l41.7,55.4c1.1,1.4,2.8,2.3,4.6,2.3c1.3,0,2.5-0.4,3.5-1.1c21-16,40.7-33.6,58.9-52.6c1-1.1,1.6-2.6,1.6-4.1
			s-0.7-3-1.8-4l-37.4-36.2l-33.4-32.1c3.5-3.5,6.9-7.4,10.1-11l5.4-6.2c5.9-7.4,10.1-13.1,14.4-18.4l-4.6-3.5l4.8,3.3l4.2-6
			c3.1-4.3,6.2-8.7,9-13.2l6.4-10.1l2.9-5l40.3,22.9l40.3,22.8c-11,19-23.4,37.3-37,54.6l-45.1-36.2l0,0c2.3-2.9,4.6-5.7,6.8-8.8
			l6.4-9.2l24.1,16.3c2.8,1.8,6.5,1,8.3-1.8s1-6.5-1.8-8.3l-28.7-19.4c-2.6-1.8-6.1-1.2-7.9,1.4l0,0l-9.7,13.5
			c-2,2.9-4.2,5.6-6.4,8.4l-3.8,4.8c-1.9,2.5-1.4,6.1,1,8.1l54.1,43.3c1,0.8,2.3,1.3,3.6,1.3c1.8,0,3.4-0.8,4.5-2.2
			c16.6-20.6,31.5-42.5,44.4-65.6c1.6-2.7,0.7-6.3-2.1-7.8l0,0l-45.2-25.7L846.7,690c3.4-6.2,6.9-12.9,10.6-20.2l3.3-7.4
			c2.1-4.5,4.2-9.2,6-14.1l0,0l4.3-10.9l2.4-7.1l1.3-3.9c2.1-5.6,3.7-11.5,5.3-17.1l44.7,12.1l44.6,12.1
			c-6,21.3-13.5,42.1-22.4,62.3L894.5,672c3-7,5.7-14,8.4-21l27.3,10.1c3,1.1,6.3-0.5,7.4-3.5c1.1-3-0.5-6.3-3.5-7.4l0,0l-32.3-12.1
			c-3-1.1-6.3,0.5-7.4,3.4l-0.8,2c-3.5,9.6-7.3,19.4-11.7,28.7c-0.6,1.4-0.6,3.1,0,4.5c0.5,1.4,1.6,2.6,3,3.2l63.3,28.5
			c0.8,0.2,1.6,0.2,2.3,0c0.7,0.1,1.4,0.1,2.1,0c1.4-0.6,2.5-1.7,3.2-3c10.9-24.1,19.9-49.1,26.7-74.8c0.8-3.1-1-6.2-4-7.1
			l-50.4-13.6l-44.6-12c3.7-15.1,6.6-30.4,8.7-45.8l0,0l1.5-11.8l0.9-11.4c0.6-6,0.7-12.1,0.8-17.9l46.3,0.6l46.2,0.6
			c-0.5,21.9-2.6,43.8-6.1,65.5l-56.8-9.8l1.9-10.8c0-2,0.5-3.9,0.8-5.8c0.3-1.9,0-3.5,0.7-5.2l28.7,2.6c3.2,0.3,6-2,6.2-5.2l0,0
			c0.3-3.1-1.9-5.9-5-6.2c-0.1,0-0.2,0-0.2,0l-34.5-3.2c-1.6-0.1-3.1,0.4-4.3,1.4s-1.9,2.5-2,4c0,3.4-0.6,6.8-1.1,10.1
			s-0.5,4.1-0.8,6l-1,8.1l-1.4,8.4c-0.3,1.5,0.1,3.1,0.9,4.3c0.9,1.3,2.3,2.1,3.8,2.3l68.3,11.8h1c1.2,0,2.3-0.3,3.3-1
			c1.2-0.9,2.1-2.3,2.3-3.8c4.6-26.1,7-52.4,7.3-78.9C999.8,503.4,997.1,501,994,501.2L994,501.2z M880.7,551.5
			c-2,15.1-4.8,30.1-8.6,44.9l0,0l-2.5,8.9c-1.6,5.8-3.3,11.9-5.4,17.6l-1.4,4.2c-0.7,2.2-1.5,4.4-2.2,6.5l-4.1,10.5l5.4,2.1
			l-5.4-1.9c-1.6,4.4-3.6,8.8-5.7,13.3c-1.2,2.5-2.3,5-3.3,7.4c-3.6,7.5-7.1,14-10.1,20.2l-8.3,14.4l-6.3,10.1
			c-2.6,4.2-5.4,8.3-8.6,12.6l-4.3,6c-3.9,5.3-8.3,10.9-14,17.9l-5.3,6.1c-3.2,3.7-6.2,7.3-9.5,10.1l0,0l-4,4.2
			c-10.6,11-21.8,21.4-33.7,31l-6.3,4.9c-3.9,3.1-7.7,6.1-11.8,8.9l-9.2,6.6l-10.1,6.2l0,0l-4.2,2.6c-6.1,3.7-12.5,7.4-18.6,10.8
			l-1,0.6l-7.8,3.9c-4.3,2.3-8.5,4.4-12.7,6.2l2.2,5.3l-2.4-5.2l-10.1,4.7l-6.5,2.6l-4.1,1.6c-5.8,2.5-12,4.5-18,6.5l-3.4,1.2l0,0
			l-4.7,1.3c-14.6,4.5-29.4,8.1-44.4,10.8l1,5.7l-1-5.7l-11.2,2l-11.7,1.5c-5.3,0.8-10.7,1.2-16.3,1.6h-6.3l0,0H520
			c-15.3,0.8-30.6,0.8-45.9,0v5.7v-5.7l-11.5-0.9l-7-0.8l-4.5-0.6c-6.9-0.7-13.9-2-20.2-3.2h-1.8l0,0h-5.5
			c-14.9-3.1-29.7-7-44.1-11.8l-1.9,5.4l1.8-5.5l-10.7-3.5l-11.2-4.7c-5-1.8-10.1-4-14.8-6.3l-6.1-2.7l0,0l-4.3-2.2
			c-13.9-6.7-27.3-14.2-40.3-22.5l-3.1,4.8l3-4.9c-12.5-8.2-24.7-17.1-36.3-26.6l-12.7-11.1c-1.8-1.5-3.5-3.2-5.2-4.8l-3.2-3.1
			c-4.3-3.9-8.5-8.3-12.5-12.5l-3.5-3.7l0,0c-3.4-3.6-6.9-7.6-10.1-11.4l-4.8-5.5c-1.8-2.4-3.6-4.7-5.4-7c-2.9-3.7-5.7-7.2-8.3-10.9
			l0,0l-3.4-4.7c-8.8-12.4-16.9-25.3-24.3-38.7c-7.1-13.2-13.4-26.9-18.9-40.8l0,0l-2.3-5c-1.7-4.3-3.2-8.7-4.7-13.3
			c-0.9-2.8-1.8-5.5-2.7-8l-2.6-6.1c-1.6-5.3-3.1-10.1-4.4-16l0,0c0-2.4-1.1-4.8-1.7-7.4c-1.2-5-2.3-10.1-3.1-14.9l-2-11.3l-0.9-7
			l-0.5-3.7l0,0l-0.7-5.8c-0.6-4.6-0.9-9.2-1.2-14c0-3-0.5-5.9-0.7-8.6c-0.2-2.6,0-5,0-7.6c0-5.1,0-10.1,0-15.5
			c0.1-15.1,1.1-30.1,3-45l0,0l0.6-6c0.5-4.5,1.3-9.1,2.2-13.9c0-2.8,1.1-5.7,1.5-8.4c1.8-8.6,3.5-15.7,5.1-22.3
			c3.9-14.7,8.7-29.2,14.3-43.3l0,0l1.9-4.8c1.8-4.6,4-9.4,6-13.9l3.1-6.8c1.4-2.6,2.7-5.2,4-7.9c2.2-4.4,4.2-8.5,6.6-12.5l-5-2.9
			l5,2.8l1.1-1.9c3.3-5.8,6.9-12,10.8-17.8s8.3-12.4,12.5-18.3v-0.5l0,0l3.1-3.9c9.3-12.2,19.3-23.8,29.9-34.9l-4.1-4l4.2,3.9
			c10.5-11.1,21.7-21.6,33.5-31.3l0,0l6.5-5.1c5-3.9,10.1-8.1,15.7-11.8s11.8-8.2,18.9-12.7l-3-4.9l3.2,4.8c3.8-2.6,7.8-4.8,12-7.3
			l7.4-4.2l5.6-2.9c4.6-2.4,9.5-4.9,14.3-7.2l0,0l5.3-2.5c13.8-6.3,28-11.8,42.5-16.4c6.3-2,13.2-3.9,21.8-6.2l8.6-1.9
			c4.5-1.1,8.9-2.1,13.3-2.8l0,0l5.8-1.4c15-2.6,30.1-4.4,45.3-5.2c7.7,0,15.4,0,22.7-0.6h9c4.8,0,9.5,0,14.1,0.6l0,0l5.1,0.5h4.3
			c2.4,0,4.7,0,7,0.6l11.7,1.4c4.9,0,10.1,1.4,14.8,2.3l7.6,1.4l0,0c5.3,1,10.6,2.2,15.8,3.5l6.2,1.4c2.8,0.9,5.6,1.6,8.6,2.4
			c4.4,1.3,8.8,2.4,12.9,3.9l0,0l5.5,1.7c14.4,4.9,28.5,10.6,42.3,17.1c13.4,6.9,26.5,14.5,39.1,22.9l0,0l5.1,3.1
			c3.9,2.4,7.7,5,11.6,8l7,4.8l4.3,3.4c4.5,3.5,9.3,7.2,13.7,10.9l0,0l4.8,4.2c4.2,3.6,8.4,7.2,12.2,11.1l8.3,7.8l8,8.5l0,0l3.3,3.7
			c10.3,11.3,19.9,23.1,28.8,35.6l4.7-3.3l-4.7,3.3l6.5,9.3l6.3,10.1c2.8,4,5.1,8.3,7.8,12.8l3.9,6.9l0,0l2,4.2l3.4,6.5
			c2.4,4.7,4.7,9.3,6.8,14l4.7,10.1l4.2,10.8l5.3-2.1l-5.3,2.1c5.4,13.9,10,28,13.9,42.4l0,0l1.5,6.5c1.6,7.1,3.3,14.2,4.4,21.4
			c0,1.5,0,2.9,0.8,4.4s0.8,4.5,1.1,6.9l1.5,11.5l5.7-0.7l-5.7,0.9c0.7,4.7,1.1,9.5,1.4,14.6c0,2.7,0,5.4,0.6,8c0,4.7,0,9.4,0,14
			c0,3,0,6,0,9.1v10.1c0,6.1,0,11.8-0.9,17.7l-0.8,11.3l-1.5,11.5l5.7,0.8h-4.7V551.5z"/>
	</g>
</g>
</svg>
