<?xml version="1.0" encoding="utf-8"?>
<!-- Generator: Adobe Illustrator 25.4.1, SVG Export Plug-In . SVG Version: 6.00 Build 0)  -->
<svg version="1.1" id="Capa_1" xmlns="http://www.w3.org/2000/svg" xmlns:xlink="http://www.w3.org/1999/xlink" x="0px" y="0px"
	 viewBox="0 0 1000 1000" style="enable-background:new 0 0 1000 1000;" xml:space="preserve">
<style type="text/css">
	.st0{fill:#FFFFFF;}
</style>
<g>
	<g>
		<path class="st0" d="M526.2,998.6c-3.3,0-6.5-0.1-9.7-0.2l-28.3-0.2c-72.7-0.1-178.2-25-182.7-26
			c-62.4-18.3-101.4-44.9-116.2-79.4c-13.2-30.7-2.1-56.4-0.2-60.2c5.3-15.2,14.6-25.8,27.5-31.5c27-11.9,60,2.2,61.4,2.9
			c73.3,36,216.2,41.9,217.6,42l13.4-0.3c1.4-0.1,147.1-6.3,219.6-43.1l0.6-0.3c1.4-0.5,35.5-12.9,61.7,0.6
			c12.6,6.5,21.1,17.7,25.4,33.3c0.3,1.4,20.1,103.8-131.8,139.5C680.9,976.7,593.5,998.6,526.2,998.6z M241,808.8
			c-6.5,0-13.2,1-19.4,3.7c-9.8,4.3-16.8,12.6-20.9,24.5l-0.4,0.8c-0.4,0.9-11.3,23.1,0.5,50.2c13.2,30.3,50.5,55.2,107.9,72
			c0.7,0.2,108.3,25.5,179.5,25.6l28.5,0.2c66.5,2.2,163.9-22.1,164.9-22.3c140.4-32.9,123-123.4,122.8-124.4
			c-3.2-11.7-9.6-20.3-19-25.2c-20.1-10.4-48.3-1.2-51.5-0.1c-75.1,37.7-218.5,43.9-224.5,44.2l-13.9,0.3
			c-6.3-0.2-147.4-6-222.7-43.1C272.8,815.3,257.7,808.8,241,808.8z"/>
	</g>
	<g>
		<rect x="213.7" y="911.7" class="st0" width="567" height="12.4"/>
	</g>
	<g>
		<rect x="493.7" y="851.1" class="st0" width="12.4" height="66.6"/>
	</g>
	<g>
		<rect x="209.8" y="807.8" class="st0" width="12.4" height="110.9"/>
	</g>
	<g>
		<rect x="777.6" y="809.1" class="st0" width="12.4" height="109.7"/>
	</g>
	<g>
		<rect x="635.6" y="835" class="st0" width="12.4" height="83.7"/>
	</g>
	<g>
		<rect x="351.7" y="833.2" class="st0" width="12.4" height="84.1"/>
	</g>
	<g>
		<rect x="269.7" y="918.1" class="st0" width="12.4" height="39.5"/>
	</g>
	<g>
		<rect x="710.2" y="918.4" class="st0" width="12.4" height="41.1"/>
	</g>
	<g>
		<rect x="417.9" y="918.4" class="st0" width="12.4" height="70.8"/>
	</g>
	<g>
		<rect x="564.1" y="917.4" class="st0" width="12.4" height="73.1"/>
	</g>
	<g>
		<path class="st0" d="M292.4,955"/>
	</g>
	<g>
		<path class="st0" d="M174.3,699.1c-0.2-1.2-2.1-17.1-0.1-36.5v-68.3h12.4v25.9c2.4-4.2,5.1-8.1,8.3-11.7
			c12.1-13.7,28.7-20.8,49.5-20.9c3.3-0.4,18.1-1.5,32.5,10.7c20.1,17,30,50.8,29.5,100.5l-12.4-0.1c0.6-56.8-13.1-80.6-24.7-90.6
			c-11.4-9.9-22.7-8.1-23.2-8.1l-1.1,0.1c-17.2,0-30.8,5.6-40.5,16.6c-11.3,12.9-15.9,31.2-17.7,47.2v34.5L174.3,699.1z"/>
	</g>
	<g>
		<path class="st0" d="M713.3,700.9c-0.2-1.2-2.1-17.1-0.1-36.5v-68.3h12.4V622c2.4-4.2,5.1-8.1,8.3-11.7
			c12.1-13.7,28.7-20.8,49.5-20.9c3.3-0.4,18.1-1.5,32.5,10.7c20.1,17,30,50.8,29.5,100.5l-12.4-0.1c0.6-56.8-13.1-80.6-24.7-90.6
			c-11.4-9.9-22.7-8.1-23.2-8.1l-1.1,0.1c-17.2,0-30.8,5.6-40.5,16.6c-11.3,12.9-15.9,31.2-17.7,47.2v34.5L713.3,700.9z"/>
	</g>
	<g>
		<path class="st0" d="M948.3,581.2H918c-23.4,0-42.4-16.5-42.4-36.7V417.3c0-161.5-153.7-292.8-342.6-292.8h-66.3
			c-188.9,0-342.6,131.4-342.6,292.8v123.8c0,8.9-3.7,17.5-10.4,24.2c-8.1,8.1-19.8,12.7-32.3,12.6l-30.3-0.2
			C28,577.5,9.1,561,9.1,541V386.4c0-211.8,201-384.1,448-384.1h85.4c247,0,448,172.3,448,384.1v158
			C990.7,564.8,971.7,581.2,948.3,581.2z M466.8,118.3h66.4c192.3,0,348.8,134.2,348.8,299.1v127.1c0,16.8,16.2,30.5,36.2,30.5h30.3
			c19.9,0,36.2-13.7,36.2-30.5v-158C984.6,178,786.4,8.5,542.8,8.5h-85.5C213.6,8.5,15.4,178,15.4,386.4V541
			c0,16.7,16,30.3,35.8,30.5l30.3,0.2c10.9,0.1,20.9-3.9,27.9-10.8c5.5-5.5,8.6-12.6,8.6-19.8V417.3
			C118,252.5,274.5,118.3,466.8,118.3z"/>
	</g>
	<g>
		<path class="st0" d="M122.8,543.8l-3.7-5c1.2-1,166.8-102.8,384.8-105c213.4,4.8,375.7,103.7,377.4,104.7l-3.3,5.3
			c-1.6-1-162.5-99-374.1-103.7C288.9,442.2,124.4,542.8,122.8,543.8z"/>
	</g>
	<g>
		<path class="st0" d="M824.2,512.6c2.2-286-350.6-260-350.6-260C172,258.8,169.9,515.7,169.9,515.7s200.5-91.5,334-78.8
			c0,0,194.7,4.8,311.4,71.7L824.2,512.6z"/>
		<path class="st0" d="M166.8,520.6l0.1-4.9c0-2.6,5.7-260,306.7-266.2c1.6-0.1,181.3-12.2,283.3,83.3
			c47.4,44.3,71,104.8,70.5,179.8l-0.1,4.8l-13.2-6c-115-65.9-308.3-71.3-310.2-71.4c-131.3-12.4-330.6,77.6-332.6,78.6L166.8,520.6
			z M494.8,255.2c-13,0-20.8,0.5-21.1,0.6c-154.3,3.2-227.8,73.6-262.3,132.1c-31.4,53.4-37.2,106.8-38.2,123
			c30.9-13.5,209.5-88.6,330.9-77.1c1.7,0.1,196.6,5.6,312.7,72.1l4.2,1.9c-0.5-71-23.5-128.3-68.5-170.4
			C673,263,545.1,255.2,494.8,255.2z"/>
	</g>
	<g>
		<path class="st0" d="M295.8,160.8l4.7-7.5c15.7-25.3,20.7-48.5,14.8-69C307,55.8,280.9,42.4,277.9,41l-2.4-1.1l0.7-2.5
			c0.6-1.9,0.6-1.9,35.8-12.6c34.4-10.4,34.5-10.3,35.2-10.3l250.4,42.3c2.2-9.1,11.5-35.1,46.7-44l0.8-0.2l73.8,20.8l-8.2,3.5
			c-0.3,0.1-33.4,14.4-43.1,45.1c-6.3,19.8-1.7,42.2,13.5,66.6l-5.3,3.3c-16.2-26.1-21-50.3-14.1-71.8c7.8-24.4,28.2-38.9,39.3-45.2
			l-55.9-15.8c-37.8,10.1-41.8,40.4-41.9,41.7l-0.4,3.2l-3.2-0.6L347.2,20.6c-5.5,1.6-44.5,13.4-60.2,18.3
			c9.8,6.2,27.5,20.2,34.3,43.6c5.8,20.2,2.1,42.6-11.2,66.6l54.5-19.1c2.7-3.9,14.4-22.6,3.5-44.3l-2.8-5.6l237.5,44l-1.1,6.1
			L376,88.3c9.1,25-6.3,45.2-7,46.1l-0.6,0.7L295.8,160.8z"/>
	</g>
	<g>
		<path class="st0" d="M195.3,78.9c0,0,66.8,24.3,36.8,120.9l32.5-23.6c41.8-93.3-20.8-123.6-20.8-123.6S226.5,59.3,195.3,78.9z"/>
		<path class="st0" d="M226.4,207.8l2.8-8.9c28.8-92.7-34.2-116.8-34.9-117l-6-2.2l5.3-3.4c31.1-19.6,48.3-26.3,49-26.5l1.2-0.5
			l1.2,0.6c0.6,0.3,64.8,32.8,22.2,127.7l-0.3,0.7L226.4,207.8z M201.8,78.6c15.1,8.3,55.6,38.2,35.8,113.4l24.5-17.8
			c36.2-81.8-10.4-113.4-18.5-118.1C239.4,57.9,224.8,64.5,201.8,78.6z"/>
	</g>
	<g>
		<path class="st0" d="M141.3,118.3c0,0,65.6,3.9,65.1,103.8l-29.6,32.8c-11.7-99.4-77.4-94-77.4-94L141.3,118.3z"/>
		<path class="st0" d="M174.5,262l-0.8-6.8c-11.2-95.1-71.5-91.5-74.1-91.3l-8.3,0.6l48.8-49.5l1.4,0.1c0.7,0.1,68.5,5.2,68,106.9
			v1.2L174.5,262z M106.4,158.1c17.6,2,61.3,14.5,72.5,89.7l24.3-27c0-86.9-51.8-98-60.8-99.3L106.4,158.1z"/>
	</g>
	<g>
		<path class="st0" d="M153.4,290.4c-26.6-97.3-84.5-89.1-84.5-89.1l-24.3,43.4c0,0,56.9-17.9,95.3,76.4L153.4,290.4z"/>
		<path class="st0" d="M139.8,329.2l-2.8-6.8c-36.9-90.7-90.9-74.8-91.5-74.6l-7.5,2.4l29-51.7l1.6-0.2c2.5-0.4,61-7.5,87.9,91.3
			l0.3,1.1L139.8,329.2z M55.5,240.4c18.8,0,56.2,8.9,84.5,72.9l10.2-23.2c-23.5-84.8-70.2-86.4-79.3-85.9l-20.4,36.4
			C51.9,240.5,53.6,240.4,55.5,240.4z"/>
	</g>
	<g>
		<path class="st0" d="M23.7,305.2c0,0,39-33.1,104,49.8l-6.9,38.9C46,317.2,14.4,359.5,14.4,359.5L23.7,305.2z"/>
		<path class="st0" d="M122.8,400.4l-4.2-4.4c-38-38.9-64-45.9-79.1-45.1c-15.4,0.9-22.4,9.9-22.6,10.3l-7.6,10.1l11.6-67.9l0.9-0.7
			c0.4-0.4,10.7-8.9,29.1-7c24.8,2.5,51.5,21.8,79.3,57.3l0.9,1.1L122.8,400.4z M42.2,344.7c22.1,0,47.9,14.4,76.6,42.8l5.6-31.6
			c-32.8-41.5-58.2-52.2-73.9-53.8c-13.2-1.4-21.4,3.2-23.9,4.9L19,351.3c4.4-2.9,11-5.9,19.9-6.5C40,344.7,41.1,344.7,42.2,344.7z"
			/>
	</g>
	<g>
		<path class="st0" d="M120.6,433.2c-91.2-62.3-107.9-23.7-107.9-23.7l-0.1,50.9c5.8,0.5,10.3-43.6,107.8,10.1L120.6,433.2z"/>
		<path class="st0" d="M123.5,475.7l-4.6-2.5c-78.2-43.1-94.4-21.9-100.4-14c-1.9,2.4-3.4,4.4-6.2,4.3l-2.9-0.2l0.4-55
			c0.1-0.4,3.9-8.6,16-12.1c14.7-4.3,43.4-1.7,96.5,34.5l1.4,0.9L123.5,475.7z M44.8,440.6c15.7,0,38.5,6.4,72.6,24.7l0.1-30.4
			c-49.8-33.8-76.3-36.5-89.6-32.8c-8,2.2-11.2,6.7-12.1,8.3l-0.1,42.5C21.6,446.1,30.2,440.6,44.8,440.6z"/>
	</g>
	<g>
		<path class="st0" d="M115.4,548.2c-67.9-46.2-101.8-7.7-101.8-7.7l-0.2-40.2c0,0,35.8-31.9,107.3,9.9l-0.1,35.3
			C120.8,548.1,117.7,549.7,115.4,548.2z"/>
		<path class="st0" d="M117.4,551.8c-1.3,0-2.6-0.4-3.7-1.1l0,0c-64.9-44.2-97.4-8.6-97.7-8.2l-5.4,6.2l-0.2-49.8l1.1-0.9
			c1.6-1.4,38.3-32.9,111,9.6l1.6,0.9l-0.1,37c0,2.4-1.3,4.6-3.4,5.7C119.5,551.6,118.4,551.8,117.4,551.8z M117.2,545.5
			c0.1,0.1,0.2,0.1,0.4,0.1l0.2-33.7c-61.2-35.1-94.9-14.7-101.1-10.2l0.1,32.1C29.2,524.7,63,508.8,117.2,545.5L117.2,545.5z"/>
	</g>
	<g>
		<path class="st0" d="M720.7,167.5c-41.8-93.3,20.1-121.6,20.1-121.6L801,76.6c0,0-66.9,23.8-36.9,120.4L720.7,167.5z"/>
		<path class="st0" d="M769.7,204.6l-51.5-35l-0.4-0.8c-42.5-95,20.9-125.4,21.6-125.7l1.4-0.6l67.9,34.6l-6.8,2.4
			c-2.6,0.9-63.7,24.1-34.9,116.5L769.7,204.6z M723.1,165.5l35.5,24.2c-19.8-74.6,19.6-104.5,35.2-113l-53.2-27.2
			C732.1,54.1,686.8,83.3,723.1,165.5z"/>
	</g>
	<g>
		<path class="st0" d="M898.8,159.3c0,0-66-6.3-77.7,93.1l-29.3-33.2c-0.6-99.9,62.6-104,62.6-104L898.8,159.3z"/>
		<path class="st0" d="M823.3,259.7l-34.6-39.3v-1.2c-0.6-101.7,64.9-107,65.5-107.1l1.4-0.1l51.5,51.1l-8.6-0.8
			c-2.6-0.2-63.2-4.7-74.4,90.4L823.3,259.7z M794.9,218l24,27.2c11.2-74.9,54.9-87,72.7-88.8l-38.2-38
			C844.2,119.7,794.8,130.4,794.9,218z"/>
	</g>
	<g>
		<path class="st0" d="M952.7,242.5c0,0-55-19.1-93.4,75.2l-15.2-31.3c26.6-97.3,84.2-87.6,84.2-87.6L952.7,242.5z"/>
		<path class="st0" d="M859.5,325.4l-18.8-38.7l0.3-1.1c27-98.9,87.1-89.9,87.7-89.8l1.5,0.2l29.1,52l-7.6-2.6
			c-2.2-0.7-52.8-16.8-89.5,73.5L859.5,325.4z M847.4,286.1l11.7,24.1c30.8-70.1,71.5-73.6,87.6-72l-20.4-36.5
			C917.5,201,870.9,201.4,847.4,286.1z"/>
	</g>
	<g>
		<path class="st0" d="M987.6,456.9c-5.8,0.5-10.9-43.9-108.5,9.8l0.6-37.2c91.2-62.3,107.1-23.7,107.1-23.7L987.6,456.9z"/>
		<path class="st0" d="M875.9,472.1l0.7-44.2l1.3-0.9c53.2-36.4,81.7-38.8,96.2-34.5c11.9,3.5,15.4,11.7,15.5,12.1l0.2,1.1l0.8,54.1
			l-2.9,0.2c-2.7,0.2-4.3-1.9-6.2-4.3c-6.3-8-22.8-29.3-101.1,13.7L875.9,472.1z M882.7,431.2l-0.5,30.3
			c65.7-35.2,89.6-26.2,102.1-12.2l-0.7-42.8c-0.8-1.4-3.9-6-11.7-8.1C958.8,394.6,932.7,397.3,882.7,431.2z"/>
	</g>
	<g>
		<path class="st0" d="M986.1,538.3c0,0-34.6-43.4-106.1,8.6v-40.5c71.6-41.8,106.1-10,106.1-10V538.3z"/>
		<path class="st0" d="M876.9,553v-48.3l1.6-0.9c72.7-42.4,108.3-10.9,109.8-9.6l1,0.9l0.1,52l-5.5-6.8
			c-1.4-1.7-33.8-40.3-101.9,9.2L876.9,553z M883.1,508.3v32.6c54.1-36.9,87.4-19.6,99.9-9.8l-0.1-33.2
			C976.9,493.6,944,473.3,883.1,508.3z"/>
	</g>
	<g>
		<path class="st0" d="M612.7,9.7c0,0-25,8.3-28.6,27.5L408.5,7.9h-0.1C412.7,7.6,551.3-0.5,612.7,9.7z"/>
		<path class="st0" d="M586.6,40.8L405.2,10.5l0.4-5.5l2.7-0.2c5.8-0.4,143.1-8.5,204.9,1.9l12.3,2.1l-11.8,4
			c-0.2,0.1-23.3,8-26.5,25.1L586.6,40.8z M437.4,9.5l144.4,24.1c3.3-10.9,12.7-18.1,20.1-22.4C555.6,5.7,478.9,7.8,437.4,9.5z"/>
	</g>
	<g>
		<path class="st0" d="M477.3,121.4l-82.7-14.2c3.2,7.8-4.1,20.8-4.3,21.3C390.3,128.4,425.6,120.2,477.3,121.4z"/>
		<path class="st0" d="M385.3,132.8l2.5-6.2c4-7.8,5.5-14.7,4-18.3l-2.1-5.2l88.2,15.1l-0.6,6.2c-50.6-1.2-85.8,6.9-86.2,7
			L385.3,132.8z M398.5,111c0.2,4.3-1.1,8.9-2.8,13.2c8.5-1.6,25.5-4.2,48-5.4L398.5,111z"/>
	</g>
	<g>
		<path class="st0" d="M976.3,302.2l8.5,53.2c0,0-31.3-41.1-106.1,35.5l-7.3-42c65-83,104.7-47.9,104.7-47.9"/>
		<path class="st0" d="M876.7,397.5l-8.6-49.3l0.9-1.1c27.5-35.1,53.9-53.9,78.7-56.2c19.2-1.7,30,7.6,30.5,8l-3.2,3.5l4.4-0.7
			l10.5,65.4l-7.5-9.9c-0.2-0.4-7.1-8.9-22-9.7c-15-0.9-41.1,6.3-79.4,45.6L876.7,397.5z M874.8,349.8l6,34.7
			c30.4-30,57.4-44.6,80.2-43.1c8.7,0.6,15.1,3.4,19.5,6.2l-7.1-44.6c-2.5-1.9-11.1-7.1-25.2-5.8C932.4,298.6,907,309,874.8,349.8z"
			/>
	</g>
</g>
</svg>
