<?xml version="1.0" encoding="utf-8"?>
<!-- Generator: Adobe Illustrator 25.4.1, SVG Export Plug-In . SVG Version: 6.00 Build 0)  -->
<svg version="1.1" id="Capa_1" xmlns="http://www.w3.org/2000/svg" xmlns:xlink="http://www.w3.org/1999/xlink" x="0px" y="0px"
	 viewBox="0 0 1000 1000" style="enable-background:new 0 0 1000 1000;" xml:space="preserve">
<style type="text/css">
	.st0{fill:#FFFFFF;}
</style>
<path class="st0" d="M454.5,682.6c-124,57.5-271.1,3.5-328.6-120.5S122.4,291,246.4,233.5c4.8-2.2,9.6-4.2,14.4-6.1
	c-32.1,2.8-64.3,11.1-95.2,25.4C22.4,319.1-39.8,488.9,26.5,632s236.1,205.3,379.2,139c79-36.6,133.4-104.8,155-182.6
	C536.2,628.2,500.1,661.4,454.5,682.6L454.5,682.6z"/>
<path class="st0" d="M999.6,668.6c1.6-29.2-2-58.9-10.3-86.9s-21.4-54.3-37.7-77.9c-16.4-23.6-36-44.6-58.2-62.5
	c-22.1-17.9-46.7-32.8-73.4-43.8c-13.3-5.5-27.1-10.1-41.4-13.4c-14.4-3.4-28.9-5.5-43.3-6.4c-28.9-1.8-57.7,1-85.1,7.2
	c-13.7,3.1-27.3,7.2-40.6,12.2s-26.3,10.9-38.9,18c-12.6,7-24.8,15.1-36.4,24.4c-11.7,9.5-21.8,19.8-30.9,29.7
	c-9.1,10-17.2,19.8-24.9,28.8c-7.7,9-15.2,17.3-22.6,24.5s-14.7,13.1-22.9,18.4c-8.2,5.3-17,9.7-26.1,13.3
	c-9.1,3.5-18.6,6.1-28.2,7.8c-9.6,1.6-19.3,2.2-28.9,1.8l-3.6-0.2l-3.4-0.3l-3.4-0.4l-3.4-0.5c-4.5-0.8-8.9-1.9-13.4-3.3
	c-8.9-2.8-17.6-6.8-25.9-11.8c-16.6-10-31.4-24.1-42.9-40.5c-2.9-4.1-5.6-8.4-7.9-12.6c-2.3-4.1-4.3-8.3-6-12.6
	c-3.5-8.7-5.8-18-7-27.6c-2.5-19.2-0.3-39.9,5.7-59.7c6-19.8,15.8-38.9,28.5-54.9c6.3-8,13.4-15.1,20.9-20.8l1.4-1.1l1.6-1.3
	c1-0.9,2.1-1.7,3.1-2.6c2.1-1.7,4.2-3.4,6.4-5c4.4-3.2,8.8-6.4,13.5-9.4c18.6-12.1,39.7-21.3,62.5-29.7l8.7-3.1l8.8-3.2l8.9-3.3
	c3-1.2,6-2.4,9.1-3.7c1.5-0.6,2.9-1.3,4.4-2c6.5,6.7,17.2,15.1,32.3,18.1c16.5,3.2,29.6-1.8,37.8-4.9c3.5-1.3,36.8-14.6,48.5-45.7
	c5.9-15.8,7.5-32.6,7.5-32.6c1-10.7,0.4-19.7,6.8-28.4c4.4-6,8.2-6.4,7.9-8.6c-1.1-7.2-43.1-10.2-81.6-2c-3.4,0.7-21,4.6-41.7,14.7
	c-12.1,5.9-18.4,9.1-24.4,16.3c-13.3,16.1-11.5,35.7-11.3,37.9c0.8,7.3,3.1,13.2,5.6,18c-1.8,0.1-3.6,0.1-5.4,0.2l-9.2,0.2l-9.4,0.2
	c-3.2,0.1-6.3,0.3-9.5,0.4c-6.4,0.4-12.9,0.7-19.4,1.5c-6.5,0.7-13.1,1.6-19.6,2.8c-13.1,2.4-26.3,5.9-39.3,10.5
	c-6.5,2.4-12.9,5-19.2,8c-3.2,1.5-6.3,3-9.4,4.7c-1.6,0.8-3.1,1.6-4.6,2.5l-2.3,1.3l-2.4,1.6c-12.6,8.7-23.4,18.7-33,29.6
	s-17.8,22.6-24.9,35c-7.1,12.4-13.1,25.4-17.8,38.9s-8.2,27.6-10.2,42.1s-2.5,29.3-1.3,44.3c1.3,14.9,4.4,30,9.5,44.4
	c2.6,7.2,5.6,14.3,9.1,21.1c3.4,6.7,7.1,12.9,11.1,19.1c16,24.6,37,45.9,62.2,62.3c12.6,8.2,26.3,15,40.8,20.1
	c7.3,2.5,14.7,4.6,22.4,6.2c1.9,0.4,3.8,0.8,5.7,1.1l5.8,0.9l5.8,0.7c1.9,0.2,3.8,0.3,5.6,0.5c30.1,2.3,60.2-2.1,88.2-12.3
	c14-5.1,27.5-11.6,40.2-19.4c6.4-3.9,12.5-8.2,18.5-12.8s11.6-9.4,16.8-14.3c10.5-9.8,19.7-19.8,28.2-29.4
	c8.5-9.5,16.3-18.6,24-26.8s15.2-15.3,22.7-21.3c7.7-6.1,16.3-11.6,25.3-16.4c9-4.9,18.6-9.1,28.4-12.6c9.9-3.5,20-6.5,30.4-8.8
	c10.4-2.2,20.8-3.9,31.2-4.6c10.4-0.8,20.7-0.9,30.9-0.1c10.2,0.7,20.2,2.3,29.8,4.6c9.8,2.4,19.5,5.6,28.9,9.6
	c19,8,37,19,53.2,32.2c32.5,26.4,57.5,61.8,69.2,100.4c6,19.3,8.5,39.3,7.8,59.4c-0.8,20.1-5,40-12.3,59
	c-3.7,9.5-8.2,18.6-13.4,27.5c-5.2,8.8-11.1,17.3-17.7,25.3c-13.2,15.9-28.8,30.1-46.3,41.7c-4.4,2.9-8.8,5.7-13.4,8.2
	c-2.3,1.3-4.6,2.6-6.9,3.7l-3.5,1.8l-3.5,1.7c-9.3,4.3-19,7.9-28.9,10.7c-9.9,2.7-20,4.6-30.2,5.5c-10.1,1-20.3,1-30.3,0
	s-19.8-3-29.2-6c-9.3-3-18.3-7.1-26.8-12.2C639.3,821.3,624.6,807,614,790c-10.6-16.9-17-36.5-17.9-56.5c-0.5-10,0.4-20.1,2.7-30.1
	c1.1-5,2.6-9.9,4.4-14.8c0.4-1.3,0.9-2.3,1.3-3.4c0.5-1.1,0.9-2.2,1.5-3.3c1-2.2,2.1-4.4,3.3-6.5c4.9-8.4,11.2-16.2,18.9-22.7
	c7.6-6.5,16.4-11.7,25.8-15c9.4-3.4,19.3-4.9,29.1-4c9.7,0.8,19.2,4.1,27.7,9.6c4.3,2.8,8.2,6.2,11.9,10c3.6,3.9,7,8.2,10,12.8
	c0.7,1.2,1.5,2.4,2.2,3.5c0.6,1.1,1.3,2.3,1.9,3.5c1.2,2.3,2.1,4.7,3,7.2c1.6,4.9,2.5,10,2.4,15.2c0,1.3-0.1,2.6-0.2,3.9
	c-0.2,1.3-0.3,2.6-0.6,3.9c-0.4,2.6-1.2,5.2-2.1,7.7c-1.9,5.1-4.7,9.9-8.1,14.3c-1.7,2.2-3.7,4.3-5.7,6.3c-2.1,2-4.3,3.9-6.7,5.6
	c-4.7,3.5-9.9,6.4-15.4,8.9l1.6,4.7c12.4-2.9,24.6-8.6,34.6-17.7c5-4.5,9.4-9.9,12.8-16c1.7-3,3.2-6.3,4.4-9.6s2.1-6.8,2.7-10.4
	c1.2-7.1,1-14.5-0.2-21.6c-0.7-3.5-1.5-7.1-2.6-10.4c-0.5-1.7-1.2-3.4-1.8-5c-0.6-1.7-1.3-3.2-2-4.7c-2.9-6.2-6.3-12.3-10.4-18
	c-4.2-5.7-8.9-11.1-14.5-15.9c-10.9-9.7-24.8-16.6-39.4-19.8c-14.6-3.2-29.9-2.8-44.3,0.5c-28.8,6.7-54.5,24.2-72,48.5
	c-2.2,3-4.3,6.2-6.2,9.4c-1,1.6-1.9,3.3-2.8,4.9c-0.9,1.6-1.8,3.4-2.5,5c-3.2,6.4-5.9,13.1-8.2,20c-4.5,13.8-7.3,28.3-8,43
	s0.6,29.5,3.9,43.9c3.3,14.4,8.4,28.3,15.1,41.4c6.8,13.1,15.2,25.3,24.9,36.4c9.7,11.1,20.8,21,32.9,29.6
	c12.1,8.6,25.3,15.6,39.2,21.1c13.8,5.4,28.1,9.3,42.6,11.6s29.1,3.1,43.6,2.6c14.5-0.6,28.9-2.5,43-5.6s27.9-7.5,41.2-13.1l5-2.1
	l4.8-2.2c3.2-1.4,6.4-3,9.6-4.6c6.3-3.2,12.5-6.7,18.6-10.3c24.2-14.8,46.4-33.2,65.3-54.8c9.5-10.8,18.1-22.4,25.8-34.6
	c7.7-12.2,14.4-25.1,20-38.5c11.2-26.8,17.9-55.8,19.5-85V668.6z"/>
<circle class="st0" cx="366.7" cy="419.6" r="69.8"/>
</svg>
