<?xml version="1.0" encoding="utf-8"?>
<!-- Generator: Adobe Illustrator 25.4.1, SVG Export Plug-In . SVG Version: 6.00 Build 0)  -->
<svg version="1.1" id="Capa_1" xmlns="http://www.w3.org/2000/svg" xmlns:xlink="http://www.w3.org/1999/xlink" x="0px" y="0px"
	 viewBox="0 0 1000 1000" style="enable-background:new 0 0 1000 1000;" xml:space="preserve">
<style type="text/css">
	.st0{fill:#FFFFFF;}
</style>
<path class="st0" d="M319.8,510.9c-5.6-4.2-10-7.7-13-10.1c0-0.5-0.1-1-0.1-1.5H205.8c0-18.6-15.1-33.7-33.7-33.7
	s-33.7,15.1-33.7,33.7c0,18.6,15.1,33.7,33.7,33.7H354C339.8,525,328.3,517.2,319.8,510.9z M172.8,515.4c-8.5,0-15.4-6.9-15.4-15.4
	s6.9-15.4,15.4-15.4s15.4,6.9,15.4,15.4S181.3,515.4,172.8,515.4z"/>
<g>
	<path class="st0" d="M552.4,426c-0.7-0.1-1.4-0.2-2.2-0.3c0.1,0,0.2,0,0.4,0C551.2,425.8,551.8,425.9,552.4,426z"/>
	<path class="st0" d="M453.5,425.9c0,0,0.4,0,0.6-0.1c0.4-0.1,0.9-0.1,1.2-0.2C454.7,425.7,454.1,425.8,453.5,425.9L453.5,425.9z"/>
	<path class="st0" d="M676.6,470.4c0,0-0.1,0-0.1-0.1c0.2,0.1,0.4,0.2,0.6,0.3C676.8,470.6,676.7,470.5,676.6,470.4L676.6,470.4z"/>
	<path class="st0" d="M447.8,426.8c0,0,0.4-0.1,0.6-0.1c0.7-0.1,1.4-0.2,2.1-0.3c0.3,0,0.7-0.1,1-0.2
		C450.2,426.3,449,426.5,447.8,426.8L447.8,426.8z"/>
	<path class="st0" d="M324.1,472.9c0.4-0.3,0.9-0.5,1.3-0.8c0.6-0.4,1.3-0.8,1.9-1.1C326.3,471.5,325.2,472.2,324.1,472.9
		L324.1,472.9z"/>
	<path class="st0" d="M494.4,422.4c-0.4,0-0.8,0-1.2,0c0.3,0,0.6,0,0.9,0C494.2,422.4,494.3,422.4,494.4,422.4z"/>
	<path class="st0" d="M551.5,425.9c0.3,0,0.6,0.1,0.9,0.1c-0.6-0.1-1.2-0.2-1.8-0.3C551,425.7,551.2,425.8,551.5,425.9z"/>
	<path class="st0" d="M522.1,422.9c-1.6-0.1-3.3-0.2-4.9-0.2c1.6,0.1,3.2,0.1,4.7,0.2C521.9,422.9,522.1,422.9,522.1,422.9z"/>
	<path class="st0" d="M487.5,422.6c-1.6,0-3.2,0.1-4.7,0.2c-1.3,0.1-2.7,0.1-3.9,0.3l4.1-0.3C484.5,422.8,486,422.7,487.5,422.6
		L487.5,422.6z"/>
	<polygon class="st0" points="341.7,471.2 341.7,471.2 341.7,471.2 	"/>
	<path class="st0" d="M454.1,425.8c0.6-0.1,1.2-0.2,1.8-0.3c-0.2,0-0.4,0-0.6,0.1C454.9,425.7,454.5,425.7,454.1,425.8z"/>
	<path class="st0" d="M444.2,427.4c-0.9,0.1-1.7,0.3-2.6,0.4c0,0,0,0-0.1,0s-0.1,0-0.2,0c-1.6,0.3-3.2,0.6-4.8,0.9
		c-1,0.2-2.1,0.4-3.1,0.6c-0.9,0.2-1.7,0.3-2.5,0.5c-1.4,0.3-2.8,0.6-4.2,0.9c-1,0.2-1.9,0.4-2.9,0.7c-1.4,0.3-2.8,0.7-4.2,1
		c-0.2,0-0.4,0.1-0.7,0.2c-1.1,0.3-2.3,0.6-3.4,0.9c-0.5,0.1-1,0.3-1.5,0.4c-1.1,0.3-2.2,0.6-3.3,1c-1.1,0.3-2.2,0.6-3.3,1
		c-0.8,0.2-1.5,0.4-2.2,0.7s-1.5,0.4-2.2,0.7c-0.4,0.1-0.8,0.2-1.1,0.3c-1.1,0.3-2.2,0.7-3.3,1.1c-0.3,0.1-0.7,0.2-1.1,0.3
		c-3.3,1.1-6.7,2.2-10,3.4c-0.3,0.1-0.5,0.2-0.8,0.3c-0.6,0.2-1.2,0.4-1.8,0.7c-0.1,0-0.2,0.1-0.4,0.1c-1.1,0.4-2.2,0.8-3.3,1.2
		c-3.6,1.4-7.2,2.8-10.8,4.4c-2.2,1-4.4,1.9-6.6,2.9c-1.1,0.5-2.2,1-3.3,1.5c-4.9,2.2-9.8,4.6-14.5,7.1c0,0-0.1,0.1-0.2,0.1
		c-0.9,0.5-1.8,1-2.8,1.4c-1,0.5-2,1.1-2.9,1.6c-1,0.5-2,1.1-3,1.6s-2,1.1-2.9,1.6c-1.7,1-3.5,2-5.2,3c-0.4,0.2-0.8,0.4-1.1,0.7
		c-0.1,0.1-0.3,0.1-0.4,0.2c0,0,0,0-0.1,0c-0.6,0.4-1.3,0.8-1.9,1.1c1.8-1.1,3.6-2.2,5.5-3.2c1.1-0.6,2.1-1.2,3.2-1.8
		c1-0.6,2-1.1,3-1.7c0.6-0.4,1.3-0.7,1.9-1.1c1.5-0.9,3.1-1.7,4.7-2.5c2.6-1.4,5.2-2.7,7.9-4c0.8-0.4,1.5-0.8,2.3-1.1
		c0.1,0,0.1-0.1,0.2-0.1c1.5-0.8,3.1-1.5,4.7-2.2c1.6-0.8,3.3-1.5,4.9-2.2c0.4-0.2,0.8-0.3,1.2-0.5c1.8-0.8,3.6-1.6,5.5-2.4
		c16.8-7.1,34.1-12.8,51.6-17.2c1.2-0.3,2.5-0.6,3.7-0.9c7.5-1.8,15.1-3.3,22.7-4.5c-0.2,0-0.4,0-0.6,0.1c-1.2,0.2-2.4,0.4-3.6,0.6
		L444.2,427.4z"/>
	<path class="st0" d="M450.5,426.4c0.6-0.1,1.2-0.2,1.8-0.3c-0.3,0-0.5,0.1-0.8,0.1C451.1,426.2,450.8,426.3,450.5,426.4z"/>
	<path class="st0" d="M634.4,449.3c13.6,5.7,26.9,12.3,39.7,19.8c-0.3-0.2-0.6-0.4-0.9-0.5c-0.1,0-0.1-0.1-0.2-0.1l0,0
		c-0.9-0.5-1.9-1.1-2.8-1.6c-0.7-0.4-1.4-0.8-2.2-1.2c-1.2-0.7-2.5-1.3-3.7-2c-0.5-0.3-1.1-0.6-1.6-0.9c-1-0.5-1.9-1-2.9-1.5
		c-0.3-0.1-0.6-0.3-0.9-0.4c-0.1,0-0.1-0.1-0.2-0.1c-0.7-0.4-1.4-0.7-2.1-1.1c0,0-0.1-0.1-0.2-0.1c-1.5-0.8-3.1-1.6-4.7-2.3
		c-0.1-0.1-0.3-0.1-0.5-0.2c-1.1-0.6-2.2-1.1-3.4-1.6c-1-0.5-2-1-3-1.4c-0.4-0.2-0.9-0.4-1.3-0.6c-0.1,0-0.1-0.1-0.2-0.1
		c-1.1-0.5-2.2-1-3.3-1.5c-0.2-0.1-0.3-0.1-0.5-0.2C637.8,450.7,636.1,450,634.4,449.3c-1.7-0.7-3.4-1.5-5.2-2.2
		c-0.5-0.2-1-0.4-1.4-0.6c-1.2-0.5-2.3-0.9-3.5-1.3c-0.8-0.3-1.5-0.6-2.2-0.9c-1.4-0.5-2.8-1.1-4.2-1.5c-0.9-0.3-0.9-0.3,0,0
		c-0.7-0.3-1.4-0.5-2.1-0.8c-0.7-0.2-1.4-0.5-2.1-0.8c-0.5-0.2-1-0.3-1.4-0.5c-0.1,0-0.2-0.1-0.3-0.1c-0.5-0.2-1-0.3-1.5-0.5
		c-0.6-0.2-1.2-0.4-1.9-0.6c-0.8-0.3-1.5-0.5-2.3-0.8c-1.4-0.4-2.8-0.9-4.3-1.3c-0.2-0.1-0.5-0.1-0.8-0.2c-1.2-0.4-2.4-0.8-3.7-1.1
		c-0.3-0.1-0.5-0.1-0.8-0.2c-0.6-0.2-1.2-0.4-1.9-0.5c-1.1-0.3-2.2-0.6-3.3-0.9s-2.1-0.6-3.2-0.8c-0.8-0.2-1.6-0.4-2.4-0.6
		c-0.1,0-0.2,0-0.3-0.1c-1-0.3-2-0.5-3-0.8c-0.1,0-0.2,0-0.3-0.1c-0.7-0.2-1.4-0.3-2.1-0.5c-1.3-0.3-2.6-0.6-3.9-0.9
		c-0.1,0-0.2,0-0.4-0.1c-0.7-0.1-1.3-0.3-2.1-0.4c-0.1,0-0.2,0-0.3,0c-1.1-0.2-2.2-0.5-3.4-0.7c-0.6-0.1-1.2-0.3-1.9-0.4
		c-1.1-0.2-2.3-0.4-3.4-0.7c-0.1,0-0.3,0-0.5-0.1c-0.8-0.2-1.6-0.3-2.4-0.5c-0.6-0.1-1.2-0.2-1.8-0.3c-0.8-0.1-1.6-0.3-2.3-0.4
		s-1.3-0.2-2-0.3c-0.1,0-0.2,0-0.4,0c-1.1-0.2-2.2-0.3-3.3-0.5c-0.3,0-0.6-0.1-0.9-0.1C579.9,430.2,607.7,438,634.4,449.3
		L634.4,449.3z"/>
	<path class="st0" d="M327.4,470.9L327.4,470.9c0.2-0.1,0.4-0.1,0.5-0.2c0.4-0.2,0.7-0.4,1.1-0.7c1.7-1,3.4-2,5.2-3
		c1-0.6,2-1.1,2.9-1.6c1-0.5,2-1.1,3-1.6s2-1.1,2.9-1.6s1.8-1,2.8-1.4c0,0,0.1-0.1,0.2-0.1c4.8-2.4,9.6-4.8,14.5-7.1
		c1.1-0.5,2.2-1,3.3-1.5c2.2-1,4.4-2,6.6-2.9c3.6-1.5,7.2-3,10.8-4.4c1.1-0.4,2.2-0.9,3.3-1.2c0.1,0,0.2-0.1,0.4-0.1
		c0.6-0.2,1.2-0.4,1.8-0.7c0.3-0.1,0.5-0.2,0.8-0.3c3.3-1.2,6.6-2.4,10-3.4c0.3-0.1,0.7-0.2,1.1-0.3c1.1-0.4,2.2-0.7,3.3-1.1
		c0.4-0.1,0.8-0.2,1.1-0.3c0.7-0.2,1.5-0.4,2.2-0.7c0.7-0.2,1.5-0.4,2.2-0.7c1.1-0.3,2.2-0.6,3.3-1c1.1-0.3,2.2-0.6,3.3-1
		c0.5-0.1,1-0.3,1.5-0.4c1.1-0.3,2.3-0.6,3.4-0.9c0.2,0,0.4-0.1,0.7-0.2c1.4-0.3,2.8-0.7,4.2-1c1-0.2,1.9-0.5,2.9-0.7
		c1.4-0.3,2.8-0.6,4.2-0.9c0.8-0.2,1.7-0.4,2.5-0.5c1-0.2,2.1-0.4,3.1-0.6c1.6-0.3,3.2-0.6,4.8-0.9c0.1,0,0.1,0,0.2,0c0,0,0,0,0.1,0
		c0.9-0.1,1.7-0.3,2.6-0.4c1.2-0.2,2.4-0.4,3.6-0.6s2.5-0.4,3.7-0.6c0.3,0,0.5-0.1,0.8-0.1c0.4,0,0.8-0.1,1.1-0.2
		c0.6-0.1,1.3-0.2,1.9-0.3c0.2,0,0.4,0,0.6-0.1c0.6-0.1,1.2-0.2,1.8-0.2c0.7-0.1,1.3-0.2,2.1-0.3l0,0c1.1-0.1,2.2-0.3,3.3-0.4
		c2.3-0.3,4.7-0.5,7.1-0.8c0.2,0,0.3,0,0.5,0c2.6-0.2,5.2-0.4,7.8-0.6h0.2c1.2-0.1,2.6-0.2,3.9-0.3c1.5-0.1,3.2-0.2,4.7-0.2h0.1
		c0.3,0,0.7,0,1,0c1.3-0.1,2.6-0.1,3.9-0.1l0,0c0,0,0.5,0,0.7,0c0.4,0,0.8,0,1.2,0c0.2,0,0.4,0,0.6,0c0.3,0,0.6,0,0.9,0s0.5,0,0.8,0
		h0.1c1.9,0,3.8,0,5.7,0s3.7,0,5.6,0l0,0c1.4,0,2.8,0,4.2,0.1c0.5,0,1,0,1.4,0s0.8,0,1.1,0c0.4,0,0.8,0,1.1,0c0.4,0,0.8,0,1.1,0
		c1.6,0,3.3,0.1,4.9,0.2l0,0c1.6,0.1,3.2,0.2,4.8,0.3c0.9,0,1.8,0.1,2.7,0.2l1.2,0.1c2.5,0.2,5.1,0.4,7.6,0.7l0,0
		c2.1,0.2,4.1,0.4,6.2,0.7c1.9,0.2,3.8,0.5,5.7,0.8c0.7,0.1,1.4,0.2,2.2,0.3c1.1,0.1,2.2,0.3,3.3,0.5c0.1,0,0.2,0,0.4,0
		c0.7,0.1,1.3,0.2,2,0.3c0.8,0.1,1.6,0.3,2.3,0.4c0.6,0.1,1.2,0.2,1.8,0.3c0.8,0.1,1.6,0.3,2.4,0.5c0.1,0,0.3,0,0.5,0.1
		c1.1,0.2,2.3,0.4,3.4,0.7c0.6,0.1,1.2,0.2,1.9,0.4c1.1,0.2,2.2,0.5,3.4,0.7c0.1,0,0.2,0,0.3,0c0.7,0.1,1.3,0.3,2.1,0.4
		c0.1,0,0.2,0,0.4,0.1c1.3,0.3,2.6,0.6,3.9,0.9c0.7,0.1,1.4,0.3,2.1,0.5c0.1,0,0.2,0,0.3,0.1c1,0.2,2,0.5,3,0.8c0.1,0,0.2,0,0.3,0.1
		c0.8,0.2,1.6,0.4,2.4,0.6c1.1,0.3,2.1,0.5,3.2,0.8c1.1,0.3,2.2,0.6,3.3,0.9c0.6,0.2,1.3,0.4,1.9,0.5c0.3,0.1,0.5,0.1,0.8,0.2
		c1.2,0.3,2.4,0.7,3.7,1.1c0.3,0.1,0.5,0.1,0.8,0.2c1.4,0.4,2.9,0.9,4.3,1.3c0.8,0.2,1.5,0.5,2.3,0.8c0.6,0.2,1.2,0.4,1.9,0.6
		c0.5,0.1,1,0.3,1.5,0.5c0.1,0,0.2,0.1,0.3,0.1c0.5,0.1,1,0.3,1.4,0.5c0.7,0.2,1.4,0.5,2.1,0.8c0.7,0.2,1.4,0.5,2.1,0.8
		c0.5,0.2,0.5,0.2,0,0c1.4,0.5,2.8,1,4.2,1.5c0.8,0.3,1.5,0.6,2.2,0.9c1.2,0.4,2.3,0.9,3.5,1.3c0.5,0.2,1,0.4,1.4,0.6
		c1.7,0.7,3.5,1.4,5.2,2.2c1.7,0.7,3.3,1.4,5,2.2c0.2,0.1,0.3,0.1,0.5,0.2c1.1,0.5,2.2,1,3.3,1.5c0.1,0,0.1,0,0.2,0.1
		c0.4,0.2,0.9,0.4,1.3,0.6c1,0.5,2,1,3,1.4c1.1,0.5,2.3,1.1,3.4,1.6c0.1,0.1,0.3,0.1,0.5,0.2c1.6,0.8,3.2,1.5,4.7,2.3
		c0,0,0.1,0,0.2,0.1c0.7,0.3,1.4,0.7,2.1,1.1c0.1,0,0.1,0,0.2,0.1c0.3,0.1,0.6,0.3,0.9,0.4c1,0.5,2,1,2.9,1.5
		c0.5,0.3,1.1,0.6,1.6,0.9c1.2,0.7,2.5,1.3,3.7,2c0.7,0.4,1.4,0.8,2.2,1.2c1,0.5,1.9,1.1,2.8,1.6l0,0c0.1,0,0.1,0.1,0.2,0.1
		c0.3,0.2,0.7,0.4,1.1,0.6c0.6,0.4,1.3,0.8,2,1.1c0.1,0,0.1,0.1,0.2,0.1c0,0,0.1,0,0.1,0.1c0.1,0.1,0.3,0.2,0.4,0.3h0.1
		c-19-25-35.9-51.7-50.5-79.6C610,359.3,596.6,326,586.6,292c-13.6-46.1-21.1-94-22.4-142.2l-0.1-6.2l5.5,2.9
		c4.1,2.2,8.6,3.3,13.2,3.3c15.7,0,28.6-12.8,28.6-28.6S598.7,93,583,93c-4.1,0-8.1,0.9-11.9,2.6c-0.9,0.4-1.8,0.9-2.7,1.4
		c-8.6,5.1-14,14.5-14,24.5c0,0.6,0,1.3,0,1.9l1.7,26.7l-8.8-25.3c-6.6-19.1-24.7-31.9-45-31.9s-38.3,12.8-45,31.9l-8.8,25.2
		l1.7-26.6c0-0.6,0-1.3,0-2c0-12.7-8.5-23.9-20.6-27.4c-2.6-0.8-5.2-1.1-7.9-1.1c-15.7,0-28.6,12.8-28.6,28.6s12.8,28.6,28.6,28.6
		c4.1,0,8-0.9,11.7-2.5l5.1-2.3v5.6c0.5,48-5.9,95.6-19.2,141.5c-10,34.8-24,68.6-41.5,100.5c-15.7,28.7-34.3,55.8-55.3,80.9
		l1.3-0.8C325.2,472.3,326.3,471.6,327.4,470.9L327.4,470.9z"/>
	<path class="st0" d="M674.3,469.1c-0.3-0.2-0.7-0.4-1.1-0.6c0.3,0.2,0.6,0.4,0.9,0.5C674.1,469,674.2,469,674.3,469.1z"/>
	<path class="st0" d="M710.2,321.2c3.6-66.9,5.3-97.4,28.6-115.4c7.5-5.8,16.5-9.7,26.7-11.6c5.9-1.1,12.3-1.7,19-1.6
		c0.1,0,0.3,0,0.4,0c6.6,0.1,13.3,0.8,20.8,2.2c53.6-0.1,97-43.8,97-97.4S859.3,0.1,805.7,0c-17.7,1.8-34.4,6.3-49.5,13.4
		c-0.1,0-0.2,0.1-0.4,0.2c-0.5,0.2-1,0.5-1.5,0.7c-13,6.4-25,14.8-36,25.2C689,67.1,667,109,652.6,164.5
		C634.9,233,632.5,310,633.5,362.9l0,0c17.3,33.1,38.1,64.6,61.6,93.4l0,0l1.1,1.3c0.7,0.9,1.4,1.7,2.1,2.6c0.5,0.6,1,1.1,1.4,1.7
		c-5.7-40.6-2.6-80,8.9-114.5c0.3-5.2,0.6-10,0.8-14.5L710.2,321.2L710.2,321.2z M805.5,63.7c18.6,0,33.7,15.1,33.7,33.7
		S824.1,131,805.5,131s-33.7-15.1-33.7-33.7S786.9,63.7,805.5,63.7z"/>
	<path class="st0" d="M352.4,165.4c-14.3-56-36.4-98.1-65.9-126c-11-10.4-23-18.8-36.1-25.2c-0.5-0.2-1-0.5-1.4-0.7l-0.5-0.2
		c-15.1-7-31.7-11.5-49.4-13.3C145.5,0.1,102,43.8,102,97.4s43.5,97.2,97.1,97.4c7.5-1.3,14.3-2.1,20.8-2.2c0.1,0,0.3,0,0.4,0
		c6.8-0.1,13.2,0.4,19,1.5c10.3,2,19.2,5.9,26.7,11.6c23.3,18,25,48.5,28.6,115.4l0.6,11.7c0.2,4.4,0.5,9.2,0.8,14.5
		c11,33,14.3,70.6,9.6,109.3c25.3-28.1,47.3-59,65.6-92.2C372.4,311.4,370,234.2,352.4,165.4L352.4,165.4z M199.3,131
		c-18.6,0-33.7-15.1-33.7-33.7s15.1-33.7,33.7-33.7S233,78.8,233,97.4S217.9,131,199.3,131z"/>
	<path class="st0" d="M168.4,266.8c0,0-0.2,0-0.3-0.1c-1.1-0.3-2.1-0.5-3.2-0.8c-1.1-0.3-2.2-0.5-3.3-0.7s-2.2-0.5-3.3-0.7
		c-2.2-0.4-4.4-0.8-6.6-1.1c-1.1-0.2-2.2-0.3-3.3-0.5c-35,0.1-63.5,28.6-63.5,63.7s28.3,63.4,63.1,63.7c8.3-2.8,16.1-4.1,23.2-3.8
		c6.4,0.2,12.2,1.6,17.2,4.3c21.9,11.5,25.5,41.4,29.7,76c0.6,4.8,1.1,9.7,1.4,14.3h60.9c5.9-40.3,3-79.4-8.5-113.4
		c-11.6-34.5-31.7-62.3-58-80.4c-11.7-8.1-24.9-14.4-39.1-18.7c-1.1-0.3-2.1-0.6-3.2-0.9C170.5,267.4,169.4,267.1,168.4,266.8
		L168.4,266.8z"/>
	<path class="st0" d="M845.2,264.2c-1.3,0.2-2.6,0.5-3.9,0.8c-0.8,0.1-1.6,0.3-2.4,0.5c-0.8,0.2-1.6,0.3-2.4,0.5
		c-1.2,0.3-2.5,0.6-3.7,0.9c-0.8,0.2-1.6,0.4-2.4,0.6c-2.7,0.8-5.4,1.5-8,2.4c-12.5,4.2-24.2,10-34.7,17.3
		c-26.3,18.1-46.4,46-58,80.4c-11.5,34.1-14.4,73.2-8.5,113.4H782c0.3-4.7,0.8-9.5,1.4-14.3c4.2-34.6,7.8-64.5,29.7-76
		c4.6-2.4,9.9-3.8,15.8-4.2c7.4-0.4,15.6,0.8,24.4,3.7c34.1-1,61.7-29.4,61.7-63.7s-27.7-62.7-62-63.5c-1.3,0.1-2.5,0.3-3.8,0.5
		S846.6,264,845.2,264.2L845.2,264.2z"/>
	<path class="st0" d="M676.2,470.2c-0.6-0.4-1.3-0.8-2-1.1c0,0-0.1,0-0.1-0.1C674.8,469.4,675.5,469.8,676.2,470.2z"/>
	<polygon class="st0" points="303.7,495.6 303.7,495.4 303.5,495.6 	"/>
	<path class="st0" d="M654.5,492.6L654.5,492.6c-1.1-0.8-2.3-1.5-3.5-2.3c-0.4-0.3-0.9-0.6-1.3-0.9c-0.5-0.3-1-0.6-1.4-0.9l-0.7-0.5
		c0,0-0.4-0.2-0.7-0.4c-0.6-0.3-1.2-0.8-2-1.2c-0.3-0.2-0.7-0.4-1.1-0.7l-0.8-0.5l0,0c-0.4-0.3-0.9-0.5-1.3-0.8c0,0,0,0-0.1,0
		c-1.1-0.7-2.2-1.3-3.4-2c0,0-0.1-0.1-0.2-0.1c-0.3-0.1-0.6-0.3-0.9-0.5c-2.2-1.2-4.4-2.5-6.7-3.7c-1-0.5-2-1.1-3-1.6s-2-1.1-3-1.5
		c-0.9-0.5-1.9-1-2.8-1.4c-0.7-0.3-1.3-0.7-2-1c-0.6-0.3-1.2-0.6-1.8-0.9c-0.8-0.4-1.6-0.8-2.4-1.1c-0.5-0.2-1-0.5-1.5-0.7
		c-1-0.4-2-0.9-2.9-1.3c-1.3-0.6-2.7-1.1-4-1.7c-2.9-1.2-5.9-2.4-8.8-3.5c-1.1-0.4-2.1-0.8-3.2-1.1c-0.4-0.2-0.9-0.3-1.3-0.5
		c-0.9-0.3-1.8-0.6-2.7-1c-1.3-0.5-2.6-0.9-3.9-1.3c-1-0.3-1.9-0.6-2.8-0.9c-0.6-0.2-1.2-0.4-1.8-0.6c-1.1-0.3-2.1-0.7-3.1-1
		c-0.4-0.1-0.9-0.3-1.3-0.4c-1-0.3-2-0.6-3-0.9c-0.8-0.2-1.5-0.4-2.3-0.6c-0.6-0.2-1.2-0.3-1.9-0.5c-0.9-0.2-1.9-0.5-2.8-0.7
		c-0.8-0.2-1.6-0.4-2.3-0.6c-0.6-0.1-1.2-0.3-1.9-0.5c-1.3-0.3-2.7-0.6-4.1-1c0,0,0,0-0.1,0c-1.6-0.3-3.2-0.7-4.8-1
		c-1.5-0.3-3-0.6-4.4-0.9c-0.2,0-0.4,0-0.5-0.1c-1.1-0.2-2.2-0.4-3.4-0.6c-2.1-0.4-4.2-0.7-6.2-1c-0.8-0.1-1.5-0.2-2.2-0.3
		c-0.9-0.1-1.8-0.2-2.6-0.3c-1.6-0.2-3.3-0.4-4.9-0.6c-2-0.2-4-0.4-6-0.6l-1-0.1c-0.7,0-1.4-0.1-2.1-0.1c-1.1,0-2.1-0.1-3.1-0.2
		c-0.2,0-0.5,0-0.7,0h-0.1c-1.2,0-2.5-0.1-3.7-0.2c-1.3,0-2.6-0.1-3.9-0.1l0,0c-0.9,0-1.8,0-2.6,0c-0.2,0-0.5,0-0.7,0
		c-3,0-6,0-9.1,0l0,0c0,0-0.5,0-0.7,0s-0.4,0-0.6,0c-0.7,0-1.3,0-2,0c-1.3,0-2.6,0.1-3.9,0.1c-1.2,0-2.5,0.1-3.7,0.2l-2.6,0.1h-0.8
		c-1.1,0.1-2.1,0.2-3.1,0.3c-1,0-2.1,0.1-3.1,0.3H477c-2,0.2-3.9,0.4-5.8,0.6c-0.9,0.1-1.8,0.2-2.7,0.3l0,0
		c-1.5,0.2-3.1,0.4-4.5,0.6c-0.1,0-0.2,0-0.3,0c-2.2,0.3-4.3,0.7-6.4,1c-0.8,0.1-1.6,0.3-2.5,0.4c-1.5,0.2-3,0.5-4.4,0.8
		s-2.8,0.6-4.2,0.9c-0.6,0.1-1.3,0.3-1.9,0.4c-0.8,0.1-1.6,0.3-2.5,0.6c-0.5,0.1-1.1,0.2-1.6,0.4c-0.9,0.2-1.7,0.4-2.6,0.6
		s-1.8,0.4-2.7,0.7c-0.4,0.1-0.8,0.2-1.1,0.3c-1.1,0.3-2.2,0.6-3.2,0.9c-0.4,0.1-0.8,0.2-1.1,0.3c-1.1,0.3-2.3,0.7-3.5,1
		c-0.1,0-0.2,0-0.2,0c-1.2,0.3-2.4,0.7-3.6,1.1c-0.4,0.1-0.8,0.2-1.2,0.4c-0.9,0.3-1.8,0.6-2.7,0.9c-0.9,0.3-1.7,0.6-2.6,0.9
		c-0.4,0.1-0.9,0.3-1.2,0.4c-1,0.3-2.1,0.7-3.1,1.1c-1,0.3-1.9,0.7-2.8,1c-1.1,0.4-2.1,0.8-3.2,1.2c-2.7,1.1-5.4,2.1-8.1,3.2
		c-1.3,0.6-2.7,1.1-4,1.7c-0.4,0.2-0.9,0.4-1.3,0.6c-1.3,0.6-2.6,1.1-3.9,1.8c-1.5,0.7-3.1,1.4-4.5,2.2c-1.5,0.7-3,1.5-4.5,2.2l0,0
		c-1.4,0.7-2.9,1.4-4.3,2.2c-0.1,0-0.2,0.1-0.3,0.1c-1,0.5-1.9,1-2.8,1.5c-1.7,0.9-3.4,1.8-5,2.8c-0.8,0.5-1.6,1-2.4,1.4
		c-0.9,0.5-1.8,1.1-2.7,1.6c-1.6,1-3.3,2-4.8,3c-0.3,0.2-0.6,0.4-0.9,0.5l-3.6,2.3c-0.3,0.2-0.6,0.4-0.9,0.6l-0.3,0.2
		c-0.3,0.2-0.6,0.4-0.9,0.6l-0.3,0.2c-0.6,0.4-1.2,0.8-1.8,1.2l-0.6,0.4c-1.4,1-2.9,2.1-4.5,3.2c2.1,1.7,4.5,3.6,7.5,5.7
		c8.7,6.4,18,12.3,27.5,17.6c2.1,1.1,4.3,2.3,6.5,3.5c39.2,20.4,80.9,30.2,124,29.2c39.2-0.9,77-10.7,112.4-29.2
		c2.2-1.1,4.4-2.3,6.5-3.5c9.6-5.3,18.7-11.2,27.4-17.6c2.1-1.5,4-3,6-4.5l-0.5-0.6c-1.3-1.6-2.7-3.2-4.1-4.9c0,0-0.1-0.1-0.2-0.1
		C655,492.8,654.8,492.6,654.5,492.6L654.5,492.6z"/>
</g>
<g>
	<path class="st0" d="M502.4,989c-150.6,0-273.1-122.5-273.1-273.1c0-62.6,21.7-123.7,61.1-172.2l1.1-1.3h56.9l0.8,0.5
		c2.6,1.4,5.3,2.9,8,4.4c48.1,25.3,99.3,37.4,152.4,36.2c48.2-1.1,94.6-13.3,138.1-36.2c2.7-1.4,5.4-2.9,8-4.4l0.9-0.5h56.7l1.1,1.3
		c39.4,48.4,61.1,109.6,61.1,172.2C775.5,866.5,653,989,502.4,989L502.4,989z M295,549.8c-37.6,46.9-58.3,105.9-58.3,166.2
		c0,146.5,119.2,265.8,265.8,265.8S768.2,862.5,768.2,716c0-60.3-20.7-119.2-58.3-166.2h-51.3c-2.4,1.3-4.8,2.7-7.4,4
		c-44.4,23.4-92,35.9-141.3,37c-54.2,1.2-106.7-11.2-155.9-37c-2.5-1.3-5-2.6-7.3-4H295L295,549.8z"/>
	<path class="st0" d="M502.4,1000c-156.6,0-284-127.4-284-284c0-65.1,22.6-128.7,63.6-179.1l4.4-5.4h65l3.3,1.9
		c2.5,1.4,5.1,2.8,7.7,4.2c46.4,24.3,95.8,36.1,147,34.9c46.5-1.1,91.3-12.8,133.2-34.9c2.6-1.4,5.2-2.8,7.7-4.2l3.3-1.9h64.9
		l4.4,5.4c41,50.4,63.6,114,63.6,179.1C786.5,872.6,659,1000,502.4,1000L502.4,1000z M300.3,560.8c-34.1,44.3-52.7,99.2-52.7,155.2
		c0,140.5,114.3,254.8,254.8,254.8S757.2,856.4,757.2,716c0-56-18.7-110.9-52.7-155.2h-43.1c-1.7,0.9-3.4,1.8-5.1,2.7
		c-45.9,24.2-95.1,37.1-146.1,38.3c-56.1,1.3-110.4-11.6-161.3-38.3c-1.7-0.9-3.4-1.8-5.1-2.7H300.3L300.3,560.8z"/>
</g>
<path class="st0" d="M502.4,650.8c-63.5,0-115,51.5-115,115s51.5,115,115,115s115-51.5,115-115S565.9,650.8,502.4,650.8z
	 M502.4,810.7c-23.5,0-42.5-19-42.5-42.5s19-42.5,42.5-42.5c23.5,0,42.5,19,42.5,42.5S525.9,810.7,502.4,810.7z"/>
<path class="st0" d="M831.3,465.5c-18.6,0-33.7,15.1-33.7,33.7h-99.5c0,0.5,0,1-0.1,1.5c-3.2,2.6-7.5,6.1-13,10.2
	c-8.6,6.4-20,14.2-34,22h180.2c18.6,0,33.7-15.1,33.7-33.7S849.9,465.6,831.3,465.5L831.3,465.5z M832,515.3
	c-8.5,0-15.4-6.9-15.4-15.4s6.9-15.4,15.4-15.4s15.4,6.9,15.4,15.4S840.5,515.3,832,515.3z"/>
</svg>
