<?xml version="1.0" encoding="utf-8"?>
<!-- Generator: Adobe Illustrator 25.4.1, SVG Export Plug-In . SVG Version: 6.00 Build 0)  -->
<svg version="1.1" id="Capa_1" xmlns="http://www.w3.org/2000/svg" xmlns:xlink="http://www.w3.org/1999/xlink" x="0px" y="0px"
	 viewBox="0 0 1000 1000" style="enable-background:new 0 0 1000 1000;" xml:space="preserve">
<style type="text/css">
	.st0{fill:#FFFFFF;}
</style>
<g id="Capa_2_00000096765917913715108870000002441903870863166336_">
	<g id="Capa_1-2">
		<path class="st0" d="M412.9,586.3c-44,0-79.8,35.7-79.8,79.8s35.7,79.8,79.8,79.8s79.8-35.7,79.8-79.8
			C492.6,622,456.9,586.3,412.9,586.3z"/>
		<path class="st0" d="M746.5,652.7c-0.4-7.7-1.1-15.4-2.2-22.9l-26.5-282.1v-11.8h-1.1v-0.1l-5.5,0.1H284.8v11.6l-23.4,241.6
			c-5.8,24.7-8.3,50-7.5,75.4c0,0.5,0,1,0,1.5l-32.4,333.5l1.9,0.1v0.2h4.5c0.9,0,7.2,0.2,17.8,0.2c5.7,0,12.6-0.1,20.5-0.2h511.1
			v-6.4l1.2-0.1L746.5,652.7z M334.3,480.7c64.5-67,163.4-99.6,235-115.1c64.8-14.1,119.7-17,136.6-17.7l20.6,218.6
			C688.6,479.2,601.5,418,500.3,418c-67.6,0-132.2,27.8-178.7,76.9C325.6,490,329.9,485.3,334.3,480.7z M557.8,489
			c-18.4-9.1-38.1-15.3-58.5-18.2C519.6,473.8,539.4,479.9,557.8,489z M471.2,480.7c101.3,0,183.8,82.5,183.8,183.8
			s-82.5,183.8-183.8,183.8s-183.8-82.4-183.8-183.7S369.9,480.7,471.2,480.7L471.2,480.7z M557.8,839.9
			c-18.4,9.1-38.1,15.3-58.5,18.2C519.6,855.2,539.4,849.1,557.8,839.9z M671.7,857.1C601.2,930.8,484.6,962.4,399.2,976
			c-44,6.9-88.5,10.9-133.1,11.9h-31.6L260.4,721c25.7,108.7,123.5,189.8,239.9,189.8c101.2,0,188.4-61.4,226.3-148.8
			C716.4,797.7,698.1,829.5,671.7,857.1L671.7,857.1z"/>
		<path class="st0" d="M501.3,0l-82.1,142.3l82.1,142.3l82.1-142.3L501.3,0z M507.2,33.9l62.5,108.3l-62.5,108.3V33.9z"/>
	</g>
</g>
</svg>
